<?xml version="1.0" standalone="no"?>
<!DOCTYPE svg PUBLIC "-//W3C//DTD SVG 1.1//EN" "http://www.w3.org/Graphics/SVG/1.1/DTD/svg11.dtd" >
<svg xmlns="http://www.w3.org/2000/svg">
<metadata>Generated by IcoMoon</metadata>
<defs>
<font id="icomoon" horiz-adv-x="1024">
<font-face units-per-em="1024" ascent="960" descent="-64" />
<missing-glyph horiz-adv-x="1024" />
<glyph unicode="&#x20;" horiz-adv-x="512" d="" />
<glyph unicode="&#xe900;" glyph-name="scroll" d="M510.002 310.153c-77.11 0-139.845 62.734-139.845 139.845s62.734 139.845 139.845 139.845 139.845-62.734 139.845-139.845c0-77.11-62.734-139.845-139.845-139.845zM510.002 509.931c-33.047 0-59.934-26.886-59.934-59.934s26.886-59.934 59.934-59.934 59.934 26.886 59.934 59.934-26.886 59.934-59.934 59.934zM266.558 294.456l-153.546 153.544 153.546 153.546-56.507 56.505-210.051-210.051 210.051-210.053 56.507 56.509zM1024 448l-204.056 204.058-56.507-56.505 147.552-147.552-149.55-149.548 56.507-56.507 206.053 206.055z" />
<glyph unicode="&#xe901;" glyph-name="angle-down" d="M0 638.464l512-531.456 512 531.456-145.408 150.528-366.592-380.928-366.592 380.928z" />
<glyph unicode="&#xe902;" glyph-name="angle-left" d="M702.464 960l-531.456-512 531.456-512 150.528 145.408-380.928 366.592 380.928 366.592z" />
<glyph unicode="&#xe903;" glyph-name="angle-right" d="M321.536-64l531.456 512-531.456 512-150.528-145.408 380.928-366.592-380.928-366.592z" />
<glyph unicode="&#xe904;" glyph-name="angle-up" d="M1024 257.536l-512 531.456-512-531.456 145.408-150.528 366.592 380.928 366.592-380.928z" />
<glyph unicode="&#xe905;" glyph-name="aquapark-poprad" d="M936.96 98.816c-31.744 0-63.488-27.648-63.488-80.896 0-35.84-20.48-52.224-40.96-52.224s-40.96 16.384-40.96 52.224c0 53.248-34.816 80.896-69.632 80.896s-69.632-27.648-69.632-80.896c0-35.84-20.48-52.224-40.96-52.224 0 0 0 0 0 0-10.24 0-20.48 4.096-27.648 12.288-9.216 9.216-13.312 23.552-13.312 39.936 0 53.248-34.816 80.896-69.632 80.896 0 0 0 0 0 0-34.816 0-69.632-27.648-69.632-80.896 0-35.84-20.48-52.224-40.96-52.224s-40.96 16.384-40.96 52.224c0 53.248-34.816 80.896-69.632 80.896s-69.632-27.648-69.632-80.896c0-36.864-20.48-53.248-40.96-53.248s-40.96 16.384-40.96 53.248c0 53.248-32.768 80.896-64.512 80.896s-64.512-27.648-64.512-80.896c0-8.192 6.144-14.336 14.336-14.336s14.336 6.144 14.336 14.336c0 35.84 18.432 51.2 35.84 51.2s35.84-16.384 35.84-51.2c0-54.272 34.816-81.92 69.632-81.92s69.632 28.672 69.632 81.92c0 35.84 20.48 51.2 40.96 51.2s40.96-16.384 40.96-51.2c0-53.248 34.816-81.92 69.632-81.92s69.632 27.648 69.632 81.92c0 35.84 20.48 51.2 40.96 51.2 0 0 0 0 0 0 20.48 0 40.96-16.384 40.96-52.224 0-53.248 34.816-80.896 69.632-80.896 0 0 0 0 0 0 18.432 0 35.84 7.168 48.128 21.504 13.312 15.36 21.504 35.84 21.504 60.416 0 35.84 20.48 51.2 40.96 51.2s40.96-16.384 40.96-51.2c0-53.248 34.816-81.92 69.632-81.92s69.632 27.648 69.632 81.92c0 35.84 18.432 51.2 34.816 51.2s34.816-16.384 34.816-51.2c0-8.192 6.144-14.336 14.336-14.336s14.336 6.144 14.336 14.336c1.024 53.248-31.744 80.896-63.488 80.896zM898.048 960c-68.608 0-124.928-56.32-124.928-124.928v-140.288h-279.552v140.288c0 53.248 43.008 96.256 96.256 96.256s96.256-43.008 96.256-96.256v-44.032c0-8.192 6.144-14.336 14.336-14.336s14.336 6.144 14.336 14.336v44.032c-1.024 68.608-56.32 124.928-125.952 124.928-68.608 0-124.928-56.32-124.928-124.928v-527.36c-18.432-13.312-31.744-35.84-31.744-68.608 0-35.84-20.48-52.224-40.96-52.224s-40.96 16.384-40.96 52.224c0 53.248-34.816 80.896-69.632 80.896s-69.632-27.648-69.632-80.896c0-36.864-20.48-53.248-40.96-53.248s-40.96 16.384-40.96 53.248c0 53.248-32.768 80.896-64.512 80.896s-64.512-27.648-64.512-80.896c0-8.192 6.144-14.336 14.336-14.336s14.336 6.144 14.336 14.336c0 35.84 18.432 51.2 35.84 51.2s35.84-16.384 35.84-51.2c0-54.272 34.816-81.92 69.632-81.92s69.632 28.672 69.632 81.92c0 35.84 20.48 51.2 40.96 51.2s40.96-16.384 40.96-51.2c0-53.248 34.816-81.92 69.632-81.92s69.632 27.648 69.632 81.92c0 26.624 11.264 41.984 25.6 48.128 0 0 0 0 0 0 5.12 2.048 10.24 3.072 15.36 3.072 0 0 0 0 0 0 20.48 0 40.96-16.384 40.96-52.224 0-53.248 34.816-80.896 69.632-80.896 0 0 0 0 0 0 18.432 0 35.84 7.168 48.128 21.504 13.312 15.36 21.504 35.84 21.504 60.416 0 35.84 20.48 51.2 40.96 51.2s40.96-16.384 40.96-51.2c0-18.432 4.096-33.792 11.264-46.080 0-1.024 1.024-2.048 1.024-3.072 13.312-21.504 34.816-32.768 57.344-32.768 34.816 0 69.632 27.648 69.632 81.92 0 35.84 18.432 51.2 34.816 51.2s34.816-16.384 34.816-51.2c0-8.192 6.144-14.336 14.336-14.336s14.336 6.144 14.336 14.336c0 53.248-31.744 80.896-63.488 80.896s-63.488-27.648-63.488-80.896c0-35.84-20.48-52.224-40.96-52.224-11.264 0-22.528 5.12-30.72 16.384v631.808c0 53.248 43.008 96.256 96.256 96.256s96.256-43.008 96.256-96.256v-44.032c0-8.192 6.144-14.336 14.336-14.336s14.336 6.144 14.336 14.336v44.032c-1.024 68.608-56.32 124.928-125.952 124.928zM493.568 532.992h279.552v-103.424h-279.552v103.424zM773.12 666.112v-103.424h-279.552v103.424h279.552zM722.944 320c-34.816 0-69.632-27.648-69.632-80.896 0-35.84-20.48-52.224-40.96-52.224 0 0 0 0 0 0-10.24 0-20.48 4.096-27.648 12.288-9.216 9.216-13.312 23.552-13.312 39.936 0 53.248-34.816 80.896-69.632 80.896 0 0 0 0 0 0-3.072 0-5.12 0-8.192-1.024v81.92h279.552v-105.472c-13.312 16.384-31.744 24.576-50.176 24.576z" />
<glyph unicode="&#xe906;" glyph-name="blizko-hrebienka" d="M858.112 267.776h-50.176v232.448c24.576 6.144 43.008 28.672 43.008 55.296v260.096c0 79.872-64.512 144.384-144.384 144.384h-389.12c-79.872 0-144.384-64.512-144.384-144.384v-259.072c0-26.624 18.432-49.152 43.008-55.296v-232.448h-50.176c-44.032 0-78.848-35.84-78.848-78.848v-194.56c0-31.744 25.6-57.344 57.344-57.344h734.208c31.744 0 57.344 25.6 57.344 57.344v194.56c1.024 41.984-33.792 77.824-77.824 77.824zM858.112 239.104c27.648 0 50.176-22.528 50.176-50.176v-50.176h-101.376v101.376h51.2zM201.728 556.544v259.072c0 63.488 52.224 115.712 115.712 115.712h389.12c63.488 0 115.712-52.224 115.712-115.712v-259.072c0-16.384-13.312-28.672-28.672-28.672h-72.704v114.688c0 8.192-6.144 14.336-14.336 14.336h-86.016c-8.192 0-14.336-6.144-14.336-14.336v-115.712h-188.416v115.712c0 8.192-6.144 14.336-14.336 14.336h-86.016c-8.192 0-14.336-6.144-14.336-14.336v-115.712h-72.704c-15.36 0-28.672 13.312-28.672 29.696zM634.88 628.224h58.368v-187.392h-58.368v187.392zM331.776 628.224h57.344v-187.392h-58.368v187.392zM165.888 239.104h50.176v-101.376h-101.376v50.176c1.024 28.672 23.552 51.2 51.2 51.2zM115.712-6.656v115.712h101.376v-144.384h-72.704c-16.384 0-28.672 13.312-28.672 28.672zM244.736 253.44v245.76h58.368v-72.704c0-8.192 6.144-14.336 14.336-14.336h86.016c8.192 0 14.336 6.144 14.336 14.336v72.704h187.392v-72.704c0-8.192 6.144-14.336 14.336-14.336h87.040c8.192 0 14.336 6.144 14.336 14.336v72.704h58.368v-534.528h-58.368v224.256c0 44.032-35.84 78.848-78.848 78.848h-260.096c-44.032 0-78.848-35.84-78.848-78.848v-223.232h-58.368v287.744zM692.224 137.728h-360.448v50.176c0 27.648 22.528 50.176 50.176 50.176h259.072c27.648 0 50.176-22.528 50.176-50.176v-50.176zM331.776-35.328v144.384h360.448v-144.384h-360.448zM879.616-35.328h-72.704v144.384h101.376v-115.712c0-15.36-12.288-28.672-28.672-28.672z" />
<glyph unicode="&#xe907;" glyph-name="ciarky" d="M756.399-1.087l166.536 166.536 58.65-58.65-166.536-166.536-58.65 58.65zM506.74-1.384l457.612 457.612 58.65-58.65-457.612-457.612-58.65 58.65zM237.415-0.574l728.131 708.323 57.837-59.454-728.131-708.323-57.837 59.454zM-2.736-0.675l968.325 957.702 58.326-58.973-968.325-957.702-58.326 58.973z" />
<glyph unicode="&#xe908;" glyph-name="FB" d="M756.736 632.32h-169.984v77.824c0 36.864 23.552 45.056 39.936 45.056h118.784v159.744l-172.032 1.024c-156.672 0-186.368-119.808-186.368-196.608v-87.040h-119.808v-162.816h119.808v-488.448h199.68v488.448h153.6l16.384 162.816z" />
<glyph unicode="&#xe909;" glyph-name="IG" d="M891.904 272.896c0-112.64-92.16-204.8-204.8-204.8h-350.208c-112.64 0-204.8 92.16-204.8 204.8v350.208c0 112.64 92.16 204.8 204.8 204.8h350.208c112.64 0 204.8-92.16 204.8-204.8v-350.208zM687.104 915.968h-350.208c-161.792 0-292.864-131.072-292.864-292.864v-350.208c0-161.792 131.072-291.84 291.84-291.84h350.208c161.792 0 291.84 131.072 291.84 291.84v350.208c2.048 161.792-129.024 292.864-290.816 292.864zM512 323.072c-68.608 0-124.928 56.32-124.928 124.928s56.32 124.928 124.928 124.928 124.928-56.32 124.928-124.928c0-68.608-56.32-124.928-124.928-124.928zM512 648.704c-110.592 0-200.704-90.112-200.704-200.704s90.112-200.704 200.704-200.704c110.592 0 200.704 90.112 200.704 200.704s-90.112 200.704-200.704 200.704zM756.736 670.208c0-12.442-10.086-22.528-22.528-22.528s-22.528 10.086-22.528 22.528c0 12.442 10.086 22.528 22.528 22.528s22.528-10.086 22.528-22.528z" />
<glyph unicode="&#xe90a;" glyph-name="lyziarske-strediska" d="M987.136 94.72h-50.176v620.544h28.672c8.192 0 14.336 6.144 14.336 14.336v216.064c0 8.192-6.144 14.336-14.336 14.336h-86.016c-8.192 0-14.336-6.144-14.336-14.336v-216.064c0-8.192 6.144-14.336 14.336-14.336h28.672v-619.52h-50.176c-8.192 0-14.336-6.144-14.336-14.336s6.144-14.336 14.336-14.336h50.176v-115.712c0-8.192 6.144-14.336 14.336-14.336s14.336 6.144 14.336 14.336v114.688h50.176c8.192 0 14.336 6.144 14.336 14.336s-6.144 14.336-14.336 14.336zM893.952 931.328h58.368v-187.392h-58.368v187.392zM165.888 94.72h-50.176v620.544h28.672c8.192 0 14.336 6.144 14.336 14.336v216.064c0 8.192-6.144 14.336-14.336 14.336h-86.016c-8.192 0-14.336-6.144-14.336-14.336v-216.064c0-8.192 6.144-14.336 14.336-14.336h28.672v-619.52h-50.176c-8.192 0-14.336-6.144-14.336-14.336s6.144-14.336 14.336-14.336h50.176v-115.712c0-8.192 6.144-14.336 14.336-14.336s14.336 6.144 14.336 14.336v114.688h50.176c8.192 0 14.336 6.144 14.336 14.336s-6.144 14.336-14.336 14.336zM72.704 931.328h58.368v-187.392h-58.368v187.392zM468.992 499.2c8.192 0 14.336 6.144 14.336 14.336s-6.144 14.336-14.336 14.336h-10.24l17.408 287.744c2.048 37.888-11.264 74.752-37.888 101.376-25.6 27.648-62.464 43.008-99.328 43.008-37.888 0-73.728-15.36-99.328-43.008s-38.912-64.512-36.864-101.376c0 0 0 0 0 0l17.408-287.744h-10.24c-8.192 0-14.336-6.144-14.336-14.336s6.144-14.336 14.336-14.336h12.288l14.336-230.4h-26.624c-8.192 0-14.336-6.144-14.336-14.336s6.144-14.336 14.336-14.336h28.672v-7.168l-43.008-279.552c-1.024-4.096 1.024-8.192 3.072-11.264 3.072-3.072 6.144-5.12 11.264-5.12h259.072c4.096 0 8.192 2.048 11.264 5.12s4.096 7.168 3.072 11.264l-43.008 275.456 1.024 10.24h28.672c8.192 0 14.336 6.144 14.336 14.336s-6.144 14.336-14.336 14.336h-26.624l13.312 231.424h12.288zM230.4 816.64c-2.048 29.696 9.216 59.392 29.696 80.896s49.152 33.792 78.848 33.792c29.696 0 58.368-12.288 78.848-33.792s30.72-51.2 29.696-80.896l-17.408-289.792h-181.248l-18.432 289.792zM411.648 225.792l40.96-261.12h-226.304l40.96 264.192c0 1.024 0 2.048 0 3.072v6.144h145.408l-1.024-10.24c0 0 0-1.024 0-2.048zM413.696 267.776h-149.504l-14.336 231.424h177.152l-13.312-231.424zM815.104 499.2c8.192 0 14.336 6.144 14.336 14.336s-6.144 14.336-14.336 14.336h-10.24l17.408 287.744c2.048 37.888-11.264 74.752-37.888 101.376-25.6 27.648-62.464 43.008-99.328 43.008-37.888 0-73.728-15.36-99.328-43.008s-38.912-64.512-36.864-101.376c0 0 0 0 0 0l17.408-287.744h-10.24c-8.192 0-14.336-6.144-14.336-14.336s6.144-14.336 14.336-14.336h12.288l14.336-230.4h-26.624c-8.192 0-14.336-6.144-14.336-14.336s6.144-14.336 14.336-14.336h27.648v-7.168l-43.008-279.552c-1.024-4.096 1.024-8.192 3.072-11.264 3.072-3.072 7.168-5.12 11.264-5.12h259.072c4.096 0 8.192 2.048 11.264 5.12s4.096 7.168 3.072 11.264l-43.008 275.456 1.024 10.24h28.672c8.192 0 14.336 6.144 14.336 14.336s-6.144 14.336-14.336 14.336h-26.624l14.336 231.424h12.288zM576.512 816.64c-2.048 29.696 9.216 59.392 29.696 80.896s49.152 33.792 78.848 33.792c29.696 0 58.368-12.288 78.848-33.792s30.72-51.2 29.696-80.896l-17.408-289.792h-182.272l-17.408 289.792zM757.76 225.792l40.96-261.12h-227.328l40.96 264.192c0 1.024 0 2.048 0 3.072v6.144h145.408l-1.024-10.24c0 0 0-1.024 1.024-2.048zM759.808 267.776h-149.504l-14.336 231.424h177.152l-13.312-231.424z" />
<glyph unicode="&#xe90b;" glyph-name="menu-x" d="M872.448 136.704l-318.464 317.44 305.152 305.152c11.264 11.264 11.264 30.72 0 41.984s-30.72 11.264-41.984 0l-305.152-304.128-305.152 305.152c-11.264 11.264-30.72 11.264-41.984 0s-11.264-30.72 0-41.984l305.152-305.152-318.464-318.464c-11.264-11.264-11.264-30.72 0-41.984 6.144-6.144 13.312-9.216 21.504-9.216s15.36 3.072 21.504 9.216l317.44 317.44 318.464-318.464c6.144-6.144 13.312-9.216 21.504-9.216s15.36 3.072 21.504 9.216c11.264 12.288 11.264 30.72-1.024 43.008z" />
<glyph unicode="&#xe90c;" glyph-name="menu" d="M992.256 777.728h-759.808c-16.384 0-29.696 13.312-29.696 29.696s13.312 29.696 29.696 29.696h759.808c16.384 0 29.696-13.312 29.696-29.696s-13.312-29.696-29.696-29.696zM992.256 418.304h-960.512c-16.384 0-29.696 13.312-29.696 29.696s13.312 29.696 29.696 29.696h960.512c16.384 0 29.696-13.312 29.696-29.696s-13.312-29.696-29.696-29.696zM992.256 57.856h-759.808c-16.384 0-29.696 13.312-29.696 29.696s13.312 29.696 29.696 29.696h759.808c16.384 0 29.696-13.312 29.696-29.696s-13.312-29.696-29.696-29.696z" />
<glyph unicode="&#xe90d;" glyph-name="navratnost" d="M1019.904 196.096c-48.128 48.128-90.112 62.464-144.384 47.104l-167.936-55.296c-1.024 28.672-23.552 56.32-65.536 56.32h-123.904c-30.72 28.672-102.4 87.040-200.704 87.040h-115.712v28.672c0 8.192-6.144 14.336-14.336 14.336h-173.056c-8.192 0-14.336-6.144-14.336-14.336v-348.16c0-8.192 6.144-14.336 14.336-14.336h173.056c8.192 0 14.336 6.144 14.336 14.336v47.104c39.936-13.312 75.776-25.6 107.52-36.864 112.64-38.912 175.104-60.416 231.424-60.416 69.632 0 130.048 31.744 262.144 102.4 55.296 29.696 124.928 66.56 212.992 110.592 4.096 2.048 7.168 6.144 8.192 10.24 1.024 3.072-1.024 8.192-4.096 11.264zM173.056 25.088h-144.384v319.488h144.384v-319.488zM789.504 87.552c-231.424-122.88-231.424-122.88-471.040-39.936-33.792 12.288-72.704 25.6-116.736 39.936v214.016h115.712c92.16 0 159.744-57.344 184.32-81.92 3.072-3.072 6.144-4.096 10.24-4.096h130.048c25.6 0 36.864-14.336 36.864-28.672 0-7.168-3.072-14.336-8.192-19.456-7.168-6.144-16.384-9.216-28.672-9.216h-238.592c-8.192 0-14.336-6.144-14.336-14.336s6.144-14.336 14.336-14.336h237.568c26.624 0 45.056 10.24 55.296 25.6l186.368 61.44c37.888 11.264 66.56 4.096 101.376-25.6-78.848-41.984-142.336-75.776-194.56-103.424zM749.568 647.68c79.872 0 144.384 64.512 144.384 144.384s-64.512 144.384-144.384 144.384c-79.872 0-144.384-64.512-144.384-144.384 1.024-79.872 65.536-144.384 144.384-144.384zM749.568 906.752c63.488 0 115.712-52.224 115.712-115.712s-52.224-115.712-115.712-115.712c-63.488 1.024-114.688 52.224-114.688 115.712 0 64.512 51.2 115.712 114.688 115.712zM533.504 344.576c79.872 0 144.384 64.512 144.384 144.384s-64.512 144.384-144.384 144.384c-79.872-1.024-144.384-65.536-144.384-144.384 0-79.872 64.512-144.384 144.384-144.384zM533.504 603.648c63.488 0 115.712-52.224 115.712-115.712s-52.224-115.712-115.712-115.712c-63.488 0-115.712 52.224-115.712 115.712 0 64.512 52.224 115.712 115.712 115.712zM533.504 430.592c8.192 0 14.336 6.144 14.336 14.336v87.040c0 8.192-6.144 14.336-14.336 14.336s-14.336-6.144-14.336-14.336v-87.040c0-7.168 6.144-14.336 14.336-14.336zM749.568 733.696c8.192 0 14.336 6.144 14.336 14.336v87.040c0 8.192-6.144 14.336-14.336 14.336s-14.336-6.144-14.336-14.336v-87.040c0-8.192 7.168-14.336 14.336-14.336z" />
<glyph unicode="&#xe90e;" glyph-name="play" d="M877.568 448l-731.136-512v1024z" />
<glyph unicode="&#xe90f;" glyph-name="recepcia" d="M587.776 365.056c-8.192 0-14.336-6.144-14.336-14.336v-201.728h-446.464v446.464h201.728c8.192 0 14.336 6.144 14.336 14.336s-6.144 14.336-14.336 14.336h-201.728v71.68c0 39.936 31.744 71.68 71.68 71.68h129.024c8.192 0 14.336 6.144 14.336 14.336s-5.12 14.336-13.312 14.336h-129.024c-55.296 0-100.352-45.056-100.352-100.352v-647.168c0-55.296 45.056-100.352 100.352-100.352h302.080c55.296 0 100.352 45.056 100.352 100.352v302.080c0 8.192-7.168 14.336-14.336 14.336zM500.736-23.040h-301.056c-39.936 0-71.68 32.768-71.68 71.68v71.68h445.44v-71.68c0-38.912-32.768-71.68-72.704-71.68zM328.704 710.144h-43.008c-8.192 0-14.336-6.144-14.336-14.336s6.144-14.336 14.336-14.336h43.008c8.192 0 14.336 6.144 14.336 14.336s-6.144 14.336-14.336 14.336zM350.208 85.504c-19.456 0-35.84-16.384-35.84-35.84s16.384-35.84 35.84-35.84 35.84 16.384 35.84 35.84c0 19.456-16.384 35.84-35.84 35.84zM350.208 41.472c-4.096 0-7.168 3.072-7.168 7.168s3.072 7.168 7.168 7.168c4.096 0 7.168-3.072 7.168-7.168 0-3.072-3.072-7.168-7.168-7.168zM911.36 538.112c-23.552 0-50.176 14.336-50.176 35.84v121.856c-1.024 80.896-40.96 151.552-103.424 182.272-5.12 39.936-38.912 69.632-83.968 69.632-44.032 0-78.848-29.696-83.968-69.632-63.488-30.72-103.424-101.376-103.424-182.272v-121.856c0-21.504-26.624-35.84-50.176-35.84-8.192 0-14.336-6.144-14.336-14.336s6.144-14.336 14.336-14.336h137.216c7.168-49.152 49.152-86.016 99.328-86.016s92.16 37.888 99.328 86.016h139.264c8.192 0 14.336 6.144 14.336 14.336s-7.168 14.336-14.336 14.336zM673.792 451.072c-34.816 0-63.488 24.576-70.656 57.344h141.312c-7.168-31.744-35.84-57.344-70.656-57.344zM502.784 538.112c8.192 10.24 13.312 22.528 13.312 35.84v121.856c0 72.704 36.864 135.168 94.208 159.744 5.12 2.048 9.216 7.168 9.216 13.312 0 28.672 23.552 50.176 55.296 50.176s55.296-21.504 55.296-50.176c0-6.144 3.072-11.264 9.216-13.312 57.344-23.552 94.208-86.016 94.208-159.744v-121.856c0-14.336 5.12-26.624 13.312-35.84h-344.064z" />
<glyph unicode="&#xe910;" glyph-name="Sauna" d="M1001.472 415.232c4.096-3.072 10.24-4.096 15.36-1.024 5.12 2.048 8.192 7.168 8.192 13.312v150.528c0 4.096-2.048 9.216-6.144 11.264l-498.688 367.616c-5.12 4.096-12.288 4.096-17.408 0l-496.64-367.616c-4.096-3.072-6.144-7.168-6.144-11.264v-151.552c0-5.12 3.072-10.24 8.192-13.312 2.048-1.024 4.096-1.024 6.144-1.024 3.072 0 6.144 1.024 8.192 3.072l63.488 47.104v-496.64h-71.68c-8.192 0-14.336-6.144-14.336-14.336s6.144-14.336 14.336-14.336h996.352c8.192 0 14.336 6.144 14.336 14.336s-6.144 14.336-14.336 14.336h-71.68v496.64l62.464-47.104zM28.672 570.88l483.328 357.376 483.328-357.376v-115.712l-473.088 350.208c-5.12 4.096-12.288 4.096-17.408 0l-410.624-302.080c-1.024-1.024-2.048-1.024-3.072-2.048l-62.464-46.080v115.712zM908.288-35.328h-792.576v57.344h416.768c8.192 0 14.336 6.144 14.336 14.336s-6.144 14.336-14.336 14.336h-416.768v57.344h416.768c8.192 0 14.336 6.144 14.336 14.336s-6.144 14.336-14.336 14.336h-416.768v57.344h158.72c8.192 0 14.336 6.144 14.336 14.336s-6.144 14.336-14.336 14.336h-158.72v57.344h158.72c8.192 0 14.336 6.144 14.336 14.336s-6.144 14.336-14.336 14.336h-158.72v57.344h158.72c8.192 0 14.336 6.144 14.336 14.336s-6.144 14.336-14.336 14.336h-158.72v84.992l398.336 293.888 395.264-292.864v-516.096zM637.952 267.776c-1.024-14.336-11.264-29.696-30.72-47.104-6.144-5.12-7.168-14.336-2.048-20.48 3.072-3.072 7.168-5.12 11.264-5.12 3.072 0 6.144 1.024 9.216 3.072 25.6 22.528 39.936 44.032 40.96 66.56 2.048 31.744-19.456 57.344-40.96 80.896-18.432 20.48-35.84 40.96-33.792 61.44 1.024 14.336 12.288 30.72 32.768 49.152 6.144 5.12 7.168 14.336 2.048 20.48s-14.336 7.168-20.48 2.048c-26.624-23.552-40.96-45.056-41.984-68.608-2.048-32.768 19.456-58.368 40.96-81.92 17.408-20.48 33.792-39.936 32.768-60.416zM768 267.776c-1.024-14.336-11.264-29.696-30.72-47.104-6.144-5.12-7.168-14.336-2.048-20.48 3.072-3.072 7.168-5.12 11.264-5.12 3.072 0 6.144 1.024 9.216 3.072 25.6 22.528 39.936 44.032 40.96 66.56 2.048 31.744-19.456 57.344-40.96 80.896-18.432 20.48-35.84 40.96-33.792 61.44 1.024 14.336 12.288 30.72 32.768 49.152 6.144 5.12 7.168 14.336 2.048 20.48s-14.336 7.168-20.48 2.048c-26.624-23.552-40.96-45.056-41.984-68.608-2.048-32.768 19.456-58.368 40.96-81.92 16.384-20.48 33.792-39.936 32.768-60.416z" />
<glyph unicode="&#xe911;" glyph-name="send" d="M1024 960l-1024-575.488 327.68-121.856 504.832 473.088-384-518.144v-281.6l183.296 214.016 232.448-86.016z" />
<glyph unicode="&#xe912;" glyph-name="Telefon" d="M661.504-64c-31.744 0-62.464 9.216-90.112 26.624-214.016 142.336-402.432 330.752-544.768 544.768-43.008 64.512-33.792 151.552 20.48 205.824l48.128 48.128c46.080 46.080 126.976 46.080 174.080 0l87.040-87.040c48.128-48.128 48.128-125.952 0-174.080l-2.048-2.048c63.488-73.728 134.144-145.408 207.872-207.872l2.048 2.048c48.128 48.128 125.952 48.128 174.080 0l87.040-87.040c23.552-23.552 35.84-54.272 35.84-87.040s-13.312-63.488-35.84-87.040l-48.128-48.128c-31.744-30.72-73.728-47.104-115.712-47.104zM182.272 715.264c-11.264 0-21.504-4.096-28.672-12.288l-48.128-48.128c-27.648-27.648-31.744-70.656-10.24-103.424 135.168-204.8 315.392-385.024 521.216-521.216 32.768-21.504 75.776-17.408 103.424 10.24l48.128 48.128c8.192 8.192 12.288 18.432 12.288 28.672 0 11.264-4.096 21.504-12.288 28.672l-87.040 87.040c-16.384 16.384-41.984 16.384-58.368 0l-28.672-27.648c-15.36-15.36-38.912-16.384-55.296-3.072-98.304 80.896-191.488 174.080-272.384 272.384-13.312 16.384-12.288 39.936 3.072 55.296l28.672 28.672c0 0 0 0 0 0 16.384 16.384 16.384 41.984 0 58.368l-87.040 87.040c-7.168 7.168-17.408 11.264-28.672 11.264zM1024 448h-81.92c0 237.568-192.512 430.080-430.080 430.080v81.92c282.624 0 512-229.376 512-512zM839.68 407.040h-81.92c0 146.432-119.808 266.24-266.24 266.24v81.92c191.488 0 348.16-156.672 348.16-348.16z" />
<glyph unicode="&#xe913;" glyph-name="ticheprostredie" d="M849.92 173.568l-178.176 238.592h102.4c5.12 0 10.24 3.072 12.288 7.168 2.048 5.12 2.048 10.24-1.024 14.336l-159.744 239.616h60.416c5.12 0 10.24 3.072 12.288 7.168 2.048 5.12 2.048 10.24-1.024 14.336l-174.080 261.12c-5.12 8.192-18.432 8.192-23.552 0l-174.080-261.12c-3.072-4.096-3.072-10.24-1.024-14.336 3.072-4.096 8.192-7.168 13.312-7.168h60.416l-159.744-238.592c-3.072-4.096-3.072-10.24-1.024-14.336 2.048-5.12 7.168-7.168 12.288-7.168h102.4l-178.176-239.616c-3.072-4.096-4.096-10.24-1.024-15.36 2.048-5.12 7.168-8.192 13.312-8.192h312.32v-203.776c0-8.192 6.144-14.336 14.336-14.336s14.336 6.144 14.336 14.336v204.8h312.32c5.12 0 10.24 3.072 13.312 8.192 1.024 4.096 0 10.24-3.072 14.336zM214.016 179.712l179.2 237.568c3.072 4.096 4.096 10.24 1.024 15.36-2.048 5.12-7.168 8.192-13.312 8.192h-103.424l159.744 238.592c3.072 4.096 3.072 10.24 1.024 14.336-2.048 5.12-7.168 7.168-12.288 7.168h-60.416l146.432 222.208 147.456-221.184h-60.416c-5.12 0-10.24-3.072-12.288-7.168-2.048-5.12-2.048-10.24 1.024-14.336l159.744-238.592h-104.448c-5.12 0-10.24-3.072-13.312-8.192-2.048-5.12-2.048-10.24 1.024-15.36l179.2-238.592h-595.968z" />
<glyph unicode="&#xe914;" glyph-name="upratovanie" d="M977.92-23.040l-43.008 130.048c-2.048 6.144-7.168 10.24-13.312 10.24h-116.736v590.848c0 126.976-103.424 230.4-230.4 230.4s-230.4-103.424-230.4-230.4v-28.672h-71.68c-8.192 0-14.336-6.144-14.336-14.336v-74.752c-58.368-8.192-109.568-40.96-147.456-94.208-17.408-25.6-31.744-54.272-41.984-84.992 0 0 0 0 0 0-35.84-109.568-28.672-251.904 25.6-399.36 2.048-6.144 7.168-9.216 13.312-9.216h233.472c18.432-26.624 48.128-43.008 82.944-43.008 55.296 0 101.376 45.056 101.376 101.376 0 43.008-26.624 79.872-64.512 94.208v509.952c0 8.192-6.144 14.336-14.336 14.336h-71.68v28.672c0 111.616 90.112 201.728 201.728 201.728s201.728-90.112 201.728-201.728v-591.872h-116.736c-6.144 0-11.264-4.096-13.312-10.24l-44.032-129.024c-1.024-4.096-1.024-9.216 2.048-13.312s7.168-6.144 11.264-6.144h346.112c5.12 0 9.216 2.048 11.264 6.144 3.072 4.096 4.096 8.192 3.072 13.312zM133.12 478.72c37.888 54.272 92.16 83.968 152.576 83.968h144.384v-144.384h-328.704c9.216 22.528 19.456 43.008 31.744 60.416zM495.616 58.88c0-39.936-32.768-71.68-71.68-71.68-39.936 0-71.68 32.768-71.68 71.68 0 39.936 32.768 71.68 71.68 71.68s71.68-31.744 71.68-71.68zM422.912 159.232c-55.296 0-101.376-45.056-101.376-101.376 0-10.24 1.024-19.456 4.096-28.672h-208.896c-46.080 134.144-54.272 262.144-25.6 361.472h338.944v-231.424c-2.048 0-5.12 0-7.168 0zM430.080 592.384h-144.384v57.344h144.384v-57.344zM637.952-13.824l33.792 101.376h238.592l33.792-101.376h-306.176z" />
<glyph unicode="&#xe915;" glyph-name="YT" d="M379.904 289.28c0 112.64 0 225.28 0 337.92 108.544-56.32 216.064-112.64 325.632-168.96-108.544-56.32-217.088-112.64-325.632-168.96zM1006.592 689.664c-12.288 54.272-57.344 94.208-110.592 100.352-126.976 14.336-256 14.336-382.976 14.336-128 0-256 0-382.976-14.336-55.296-6.144-99.328-46.080-111.616-100.352-18.432-77.824-18.432-161.792-18.432-241.664s0-163.84 17.408-241.664c12.288-54.272 57.344-94.208 110.592-100.352 126.976-14.336 256-14.336 382.976-14.336 128 0 256 0 382.976 14.336 53.248 6.144 98.304 46.080 110.592 100.352 19.456 77.824 19.456 161.792 19.456 241.664s0 163.84-17.408 241.664z" />
<glyph unicode="&#xe916;" glyph-name="mail-footer" d="M921.6 796.16h-819.2c-56.32 0-102.4-46.080-102.4-102.4v-491.52c0-56.32 46.080-102.4 102.4-102.4h819.2c56.32 0 102.4 46.080 102.4 102.4v491.52c0 56.32-46.080 102.4-102.4 102.4zM876.544 714.24l-364.544-294.912-364.544 294.912h729.088zM921.6 181.76h-819.2c-11.264 0-20.48 9.216-20.48 20.48v459.776l404.48-327.68c7.168-6.144 16.384-9.216 25.6-9.216s18.432 3.072 25.6 9.216l404.48 327.68v-459.776c0-11.264-9.216-20.48-20.48-20.48z" />
</font>
</defs>
</svg>
