<?xml version="1.0" encoding="UTF-8" standalone="no"?>
<svg
   xmlns:dc="http://purl.org/dc/elements/1.1/"
   xmlns:cc="http://creativecommons.org/ns#"
   xmlns:rdf="http://www.w3.org/1999/02/22-rdf-syntax-ns#"
   xmlns:svg="http://www.w3.org/2000/svg"
   xmlns="http://www.w3.org/2000/svg"
   xmlns:xlink="http://www.w3.org/1999/xlink"
   id="svg46"
   version="1.1"
   viewBox="0 0 274 328"
   height="328px"
   width="274px">
  <metadata
     id="metadata50">
    <rdf:RDF>
      <cc:Work
         rdf:about="">
        <dc:format>image/svg+xml</dc:format>
        <dc:type
           rdf:resource="http://purl.org/dc/dcmitype/StillImage" />
        <dc:title>Group 3</dc:title>
      </cc:Work>
    </rdf:RDF>
  </metadata>
  <!-- Generator: Sketch 52.6 (67491) - http://www.bohemiancoding.com/sketch -->
  <title
     id="title31">Group 3</title>
  <desc
     id="desc33">Created with Sketch.</desc>
  <defs
     id="defs36">
    <polygon
       points="0 0 274 0 274 328 0 328"
       id="path-1" />
  </defs>
  <g
     fill-rule="evenodd"
     fill="none"
     stroke-width="1"
     stroke="none"
     id="Page-1">
    <g
       transform="translate(-1371.000000, -1971.000000)"
       id="02_Valor&amp;Kraft_Projekty_v1">
      <g
         transform="translate(1371.000000, 1971.000000)"
         id="Group-3">
        <mask
           fill="white"
           id="mask-2">
          <use
             id="use38"
             xlink:href="#path-1" />
        </mask>
        <g
           id="Clip-2" />
        <path
           mask="url(#mask-2)"
           fill="#D0B17C"
           id="Fill-1"
           d="M263.566291,0 L10.435244,0 L0,0 L0,10.4386114 L0,250.641857 L0,256.998399 L5.64826581,259.913285 L132.607587,325.521271 L137.408382,328 L142.209178,325.507449 L268.380904,259.904071 L274,256.979969 L274,250.641857 L274,10.4386114 L274,0 L263.566291,0 Z M189.170079,10.4386114 L254.611049,10.4386114 L218.137592,47.3646043 L189.170079,20.3734912 L189.170079,10.4386114 Z M235.183717,154.364595 C203.059685,177.364248 156.107996,228.190473 137.491287,280.554 C120.632465,232.608876 76.3920659,182.00073 38.0240825,154.376881 L37.7922564,123.054904 L48.4746792,113.015592 C77.950367,140.315394 118.978977,179.827619 132.406466,224.266587 L137.251785,240.306142 L142.362705,224.349518 C155.492352,183.407493 192.018009,145.664472 224.757685,112.252315 L235.418614,122.270127 L235.183717,154.364595 Z M235.086995,167.430905 L234.677077,224.119153 C221.152866,228.27494 176.408898,244.050343 150.373755,276.594792 C167.485897,235.428545 203.291511,192.18594 235.086995,167.430905 Z M125.250563,277.987733 C99.0096935,244.713795 52.4694571,228.94607 38.5399339,224.856321 L38.1192693,167.441655 C72.2284081,193.878356 108.907592,237.445007 125.250563,277.987733 Z M137.514316,207.764765 C120.210265,166.678378 83.4220765,131.179114 56.0988401,105.848165 L85.1891747,78.5115042 C105.887712,98.2691526 121.096117,114.247277 132.406466,151.661644 L137.251785,167.695057 L142.362705,151.744576 C153.481145,117.08384 167.789881,102.564694 189.457175,80.5893976 L190.224811,79.8076919 L217.147341,105.104854 C187.145055,135.728057 154.052266,169.923455 137.514316,207.764765 Z M182.026458,73.2591795 C163.142612,92.4240217 148.775537,106.999991 137.56191,134.393475 C126.19015,104.484404 111.669547,89.3724517 92.8041239,71.3517563 L137.006141,29.8061749 L182.619073,72.6617659 L182.026458,73.2591795 Z M84.9895893,10.4386114 L84.9895893,20.3734912 L56.0251471,47.3646043 L19.5470835,10.4386114 L84.9895893,10.4386114 Z M10.435244,16.0472342 L48.3933098,54.4767434 L44.1943408,58.3883432 L10.435244,24.8686825 L10.435244,16.0472342 Z M10.435244,39.5767275 L36.5532919,65.5066253 L10.435244,89.8439323 L10.435244,39.5767275 Z M10.435244,250.641857 L10.435244,104.105069 L95.4263686,24.9178271 L95.4263686,10.4386114 L132.176175,10.4386114 L132.176175,20.0156573 L27.332448,118.571998 L28.1614949,232.896064 L32.067227,233.88817 C32.9438673,234.10932 117.89354,256.365662 131.38551,313.144521 L10.435244,250.641857 Z M263.566291,250.641857 L143.408225,313.119949 C156.858744,256.282731 240.345302,233.315329 241.20966,233.088035 L245.049375,232.059071 L245.883028,117.781078 L142.616025,20.7620403 L142.616025,10.4386114 L178.730229,10.4386114 L178.730229,24.9178271 L263.566291,103.9561 L263.566291,250.641857 Z M263.566291,89.6949629 L237.604841,65.5066253 L263.566291,39.7333758 L263.566291,89.6949629 Z M263.566291,25.0268666 L229.963792,58.3883432 L225.770964,54.4767434 L263.566291,16.2100256 L263.566291,25.0268666 Z" />
      </g>
    </g>
  </g>
</svg>
