<?xml version="1.0" encoding="UTF-8"?>
<svg width="282px" height="73px" viewBox="0 0 282 73" version="1.1" xmlns="http://www.w3.org/2000/svg" xmlns:xlink="http://www.w3.org/1999/xlink">
    <!-- Generator: Sketch 52.6 (67491) - http://www.bohemiancoding.com/sketch -->
    <title>Group 26</title>
    <desc>Created with Sketch.</desc>
    <defs>
        <polygon id="path-1" points="0 0.897 61.0868 0.897 61.0868 74 0 74"></polygon>
    </defs>
    <g id="Page-1" stroke="none" stroke-width="1" fill="none" fill-rule="evenodd">
        <g id="01_Valor&amp;Kraft_Homepage_v1" transform="translate(-313.000000, -8134.000000)">
            <g id="Footer" transform="translate(0.000000, 8022.000000)">
                <g id="Group-26" transform="translate(313.000000, 111.000000)">
                    <path d="M83.0831,52.1392 L81.9761,52.1392 L81.9761,51.6162 C82.6151,51.6162 82.6761,49.5762 82.5581,48.5282 L79.2961,27.1562 C79.1201,26.4002 78.3071,23.4882 77.5491,23.4882 L77.5491,23.0222 L84.1301,23.0222 L84.1301,23.4882 C83.3731,23.4882 83.3731,26.8652 83.3731,26.8652 L86.4601,46.6072 L89.4871,26.8082 C89.6041,25.8172 89.4301,23.4882 88.7891,23.4882 L88.7891,23.0222 L95.3681,23.0222 L95.3681,23.4882 C94.6111,23.4882 93.7961,26.4002 93.6211,27.1562 L90.3611,48.5862 C90.2441,49.6332 90.3021,51.6162 90.8841,51.6162 L90.8841,52.1392 L83.0831,52.1392 Z" id="Fill-1" fill="#FEFEFE"></path>
                    <path d="M113.3634,51.6148 L113.3634,52.1378 L107.0174,52.1378 L107.0174,51.6148 C107.6574,51.6148 108.0074,49.9838 107.8924,48.4698 C107.8334,48.2368 107.6574,47.0138 107.6574,47.0138 L102.0104,47.0138 L101.8924,48.0048 C101.7754,48.5278 101.6034,51.6148 102.3004,51.6148 L102.3004,52.1378 L96.3014,52.1378 L96.3014,51.6148 C96.8264,51.6148 97.3514,50.0428 97.5264,48.9358 L100.9034,27.1558 C100.9034,26.6918 101.1354,23.5458 100.4384,23.5458 L100.4384,23.0218 L109.2904,23.0218 L109.2904,23.5458 C108.5904,23.5458 108.7644,26.2818 108.8224,27.0398 L112.1414,48.9358 C112.3744,50.0428 112.8424,51.6148 113.3634,51.6148 Z M107.0174,42.8808 L104.8624,28.5548 L102.6504,42.8808 L107.0174,42.8808 Z" id="Fill-3" fill="#FEFEFE"></path>
                    <path d="M115.6964,52.1392 L115.6964,51.6162 C116.3374,51.6162 116.7434,48.9942 116.8004,48.1792 L116.8004,26.8652 C116.6864,25.9922 116.3374,23.5452 115.6964,23.5452 L115.6964,23.0222 L122.0434,23.0222 L122.0434,23.5452 C121.2854,23.5452 120.9354,26.6912 120.9354,27.1562 L120.9354,48.0042 L124.5494,48.0042 C125.0734,48.0042 128.2174,47.5972 128.2174,46.8992 L128.6824,46.8992 L127.8674,52.1392 L115.6964,52.1392 Z" id="Fill-5" fill="#FEFEFE"></path>
                    <path d="M138.8731,52.1392 L135.6721,52.1392 C132.7021,52.1392 130.2581,49.6932 130.2581,46.7232 L130.2581,28.3802 C130.1411,25.4682 132.1771,23.1382 135.6721,23.0222 L138.8731,23.0222 C141.8461,23.0222 144.2331,25.4092 144.2331,28.3802 L144.2331,46.7232 C144.2331,49.6932 141.8461,52.1392 138.8731,52.1392 M135.6721,48.0042 L138.8731,48.0042 C139.5171,48.0042 140.0991,47.4222 140.0991,46.7232 L140.0991,28.3802 C140.0991,27.7392 139.5171,27.1562 138.8731,27.1562 L135.6721,27.1562 C134.9751,27.1562 134.3921,27.7392 134.3921,28.3802 L134.3921,46.7232 C134.3921,47.4222 134.9751,48.0042 135.6721,48.0042" id="Fill-7" fill="#FEFEFE"></path>
                    <path d="M162.3458,51.6148 L162.3458,52.1378 L155.9968,52.1378 L155.9968,51.6148 C156.5778,51.6148 156.3468,49.9258 156.0568,48.7608 L153.3208,41.0168 L152.0368,41.0168 L152.0368,48.1208 C152.0368,48.8788 152.4448,51.6148 153.0878,51.6148 L153.0878,52.1378 L146.7388,52.1378 L146.7388,51.6148 C147.4378,51.6148 147.8458,48.7608 147.8458,48.0618 L147.8458,27.1558 C147.8458,26.6328 147.4948,23.4878 146.7388,23.4878 L146.7388,23.0218 L155.2418,23.0218 C155.2418,23.0218 160.8888,23.0218 160.8888,29.4858 L160.8888,33.6198 C160.8888,36.1818 160.1908,38.1618 158.7938,39.5018 C158.3858,39.9088 157.9188,40.1998 157.5118,40.3748 L160.3058,48.5868 C160.7158,49.6348 161.5878,51.6148 162.3458,51.6148 Z M155.0058,36.8818 C155.4748,36.8818 156.7538,36.5318 156.7538,33.6198 L156.7538,29.4858 C156.7538,27.7388 155.5888,27.2718 154.9498,27.0978 L152.0368,27.0978 L152.0368,36.8818 L155.0058,36.8818 Z" id="Fill-9" fill="#FEFEFE"></path>
                    <path d="M178.3106,38.6792 L186.0056,38.6792 L186.0056,41.8012 L184.7746,41.8012 L184.7746,48.0922 C184.7746,50.3352 182.9726,52.1382 180.7296,52.1382 L178.3106,52.1382 C176.0676,52.1382 174.2616,50.3352 174.2616,48.0922 L174.2616,42.7252 C174.2616,41.8012 174.5706,40.9222 175.1436,40.2182 C174.5706,39.5582 174.2616,38.6792 174.2616,37.7552 L174.1766,34.2812 C174.1766,32.0812 175.9776,30.2342 178.2206,30.2342 L180.6406,30.2342 C182.8396,30.2342 184.6896,32.0812 184.6896,34.2812 L184.7326,35.6872 C184.8196,35.9952 184.9946,36.2602 185.3476,36.2602 L185.3476,36.6562 L181.6526,36.6562 L181.5626,34.2812 C181.5626,33.7962 181.1236,33.3562 180.6406,33.3562 L178.2206,33.3562 C177.6926,33.3562 177.2536,33.7962 177.2536,34.2812 L177.3866,37.7552 C177.3866,38.2392 177.7826,38.6792 178.3106,38.6792 Z M181.6526,41.8012 L178.3106,41.8012 C177.7826,41.8012 177.3866,42.1972 177.3866,42.7252 L177.3866,48.0922 C177.3866,48.6202 177.7826,49.0592 178.3106,49.0592 L180.7296,49.0592 C181.2576,49.0592 181.6526,48.6202 181.6526,48.0922 L181.6526,41.8012 Z" id="Fill-11" fill="#FEFEFE"></path>
                    <path d="M198.1866,52.1392 L198.1866,51.6162 C198.8826,51.6162 199.2336,48.7622 199.2906,48.0612 L199.2906,26.8652 C199.1756,25.9922 198.8276,23.5452 198.1866,23.5452 L198.1866,23.0222 L204.5336,23.0222 L204.5336,23.5452 C203.7756,23.5452 203.4256,26.6912 203.4256,27.1562 L203.4256,33.1542 L206.6306,27.1562 C206.7456,26.8652 208.7856,23.5452 207.7356,23.5452 L207.7356,23.0222 L214.0836,23.0222 L214.0836,23.5452 C213.3276,23.5452 211.5806,26.6322 211.3476,27.1562 L207.5626,34.1452 L212.9196,49.2852 C213.3276,50.3342 213.9096,51.6162 214.3736,51.6162 L214.3736,52.1392 L208.0276,52.1392 L208.0276,51.6162 C208.7856,51.6162 208.5526,49.1692 208.1456,48.0042 L204.8826,39.2102 L203.4256,41.9482 L203.4256,48.0042 C203.4256,48.5862 203.7756,51.6162 204.5336,51.6162 L204.5336,52.1392 L198.1866,52.1392 Z" id="Fill-13" fill="#FEFEFE"></path>
                    <path d="M232.544,51.6148 L232.544,52.1378 L226.197,52.1378 L226.197,51.6148 C226.78,51.6148 226.548,49.9258 226.255,48.7608 L223.519,41.0168 L222.239,41.0168 L222.239,48.1208 C222.239,48.8788 222.646,51.6148 223.286,51.6148 L223.286,52.1378 L216.94,52.1378 L216.94,51.6148 C217.636,51.6148 218.044,48.7608 218.044,48.0618 L218.044,27.1558 C218.044,26.6328 217.696,23.4878 216.94,23.4878 L216.94,23.0218 L225.44,23.0218 C225.44,23.0218 231.09,23.0218 231.09,29.4858 L231.09,33.6198 C231.09,36.1818 230.389,38.1618 228.992,39.5018 C228.585,39.9088 228.12,40.1998 227.713,40.3748 L230.507,48.5868 C230.914,49.6348 231.786,51.6148 232.544,51.6148 Z M225.208,36.8818 C225.672,36.8818 226.956,36.5318 226.956,33.6198 L226.956,29.4858 C226.956,27.7388 225.79,27.2718 225.15,27.0978 L222.239,27.0978 L222.239,36.8818 L225.208,36.8818 Z" id="Fill-15" fill="#FEFEFE"></path>
                    <path d="M250.2501,51.6148 L250.2501,52.1378 L243.9031,52.1378 L243.9031,51.6148 C244.5441,51.6148 244.8931,49.9838 244.7751,48.4698 C244.7181,48.2368 244.5441,47.0138 244.5441,47.0138 L238.8941,47.0138 L238.7761,48.0048 C238.6611,48.5278 238.4861,51.6148 239.1871,51.6148 L239.1871,52.1378 L233.1881,52.1378 L233.1881,51.6148 C233.7121,51.6148 234.2341,50.0428 234.4091,48.9358 L237.7861,27.1558 C237.7861,26.6918 238.0221,23.5458 237.3211,23.5458 L237.3211,23.0218 L246.1721,23.0218 L246.1721,23.5458 C245.4761,23.5458 245.6501,26.2818 245.7081,27.0398 L249.0271,48.9358 C249.2601,50.0428 249.7251,51.6148 250.2501,51.6148 Z M243.9031,42.8808 L241.7481,28.5548 L239.5341,42.8808 L243.9031,42.8808 Z" id="Fill-17" fill="#FEFEFE"></path>
                    <path d="M265.1036,23.022 L265.6246,28.263 L265.1036,28.263 C265.1036,27.563 261.9586,27.215 261.4916,27.215 L257.8816,27.215 L257.8816,32.805 L259.3936,32.805 C259.8616,32.805 263.0056,32.455 263.0056,31.699 L263.5316,31.699 L263.5316,38.045 L263.0056,38.045 C263.0056,37.29 259.8616,36.939 259.3936,36.939 L257.8816,36.939 L257.8816,48.237 C257.9386,49.053 258.2896,51.615 258.9296,51.615 L258.9296,52.138 L252.6406,52.138 L252.6406,51.615 C253.2796,51.615 253.6296,49.111 253.7476,48.237 L253.7476,27.156 C253.6876,26.516 253.3396,23.545 252.6406,23.545 L252.6406,23.022 L265.1036,23.022 Z" id="Fill-19" fill="#FEFEFE"></path>
                    <path d="M267.1407,28.2046 L266.6197,28.2046 L266.6197,27.0986 L267.4337,22.9646 L280.5367,22.9646 L281.3507,27.0986 L281.3507,28.2046 L280.8267,28.2046 C280.8267,27.5066 277.6817,27.0986 277.2167,27.0986 L276.0527,27.0986 L276.0527,48.0046 C276.0527,48.7036 276.4587,51.6146 277.1567,51.6146 L277.1567,52.1386 L270.8107,52.1386 L270.8107,51.6146 C271.5107,51.6146 271.8577,48.9356 271.9167,48.1206 L271.9167,27.0986 L270.7527,27.0986 C270.2857,27.0986 267.1407,27.5066 267.1407,28.2046" id="Fill-21" fill="#FEFEFE"></path>
                    <g id="Group-25" transform="translate(0.000000, 0.102700)">
                        <mask id="mask-2" fill="white">
                            <use xlink:href="#path-1"></use>
                        </mask>
                        <g id="Clip-24"></g>
                        <path d="M58.7608,0.8968 L2.3258,0.8968 L-0.0002,0.8968 L-0.0002,3.2238 L-0.0002,56.7588 L-0.0002,58.1748 L1.2588,58.8258 L29.5648,73.4478 L30.6348,74.0008 L31.7048,73.4448 L59.8338,58.8238 L61.0868,58.1708 L61.0868,56.7588 L61.0868,3.2238 L61.0868,0.8968 L58.7608,0.8968 Z M42.1748,3.2238 L56.7648,3.2238 L48.6328,11.4538 L42.1748,5.4378 L42.1748,3.2238 Z M52.4328,35.3008 C45.2718,40.4268 34.8038,51.7548 30.6538,63.4248 C26.8948,52.7398 17.0318,41.4598 8.4768,35.3038 L8.4258,28.3228 L10.8078,26.0848 C17.3778,32.1698 26.5258,40.9758 29.5198,50.8798 L30.5998,54.4548 L31.7388,50.8988 C34.6658,41.7738 42.8098,33.3618 50.1088,25.9158 L52.4858,28.1478 L52.4328,35.3008 Z M52.4108,38.2128 L52.3208,50.8468 C49.3048,51.7738 39.3288,55.2898 33.5258,62.5428 C37.3398,53.3688 45.3228,43.7308 52.4108,38.2128 Z M27.9238,62.8528 C22.0728,55.4378 11.6978,51.9228 8.5918,51.0118 L8.4978,38.2158 C16.1028,44.1078 24.2808,53.8178 27.9238,62.8528 Z M30.6578,47.2028 C26.7998,38.0448 18.5988,30.1338 12.5068,24.4878 L18.9918,18.3948 C23.6078,22.7988 26.9978,26.3598 29.5198,34.6988 L30.5998,38.2718 L31.7388,34.7168 C34.2178,26.9928 37.4078,23.7558 42.2388,18.8588 L42.4098,18.6838 L48.4118,24.3228 C41.7228,31.1478 34.3448,38.7678 30.6578,47.2028 Z M40.5818,17.2248 C36.3718,21.4968 33.1688,24.7448 30.6688,30.8498 C28.1328,24.1838 24.8968,20.8158 20.6908,16.7998 L30.5448,7.5408 L40.7138,17.0908 L40.5818,17.2248 Z M18.9478,3.2238 L18.9478,5.4378 L12.4898,11.4538 L4.3578,3.2238 L18.9478,3.2238 Z M2.3258,4.4738 L10.7888,13.0388 L9.8528,13.9108 L2.3258,6.4398 L2.3258,4.4738 Z M2.3258,9.7178 L8.1498,15.4978 L2.3258,20.9208 L2.3258,9.7178 Z M2.3258,56.7588 L2.3258,24.0998 L21.2758,6.4508 L21.2758,3.2238 L29.4678,3.2238 L29.4678,5.3578 L6.0938,27.3238 L6.2788,52.8038 L7.1498,53.0248 C7.3448,53.0748 26.2828,58.0348 29.2918,70.6888 L2.3258,56.7588 Z M58.7608,56.7588 L31.9728,70.6828 C34.9708,58.0158 53.5838,52.8968 53.7768,52.8468 L54.6328,52.6168 L54.8188,27.1478 L31.7948,5.5248 L31.7948,3.2238 L39.8468,3.2238 L39.8468,6.4508 L58.7608,24.0668 L58.7608,56.7588 Z M58.7608,20.8878 L52.9728,15.4978 L58.7608,9.7528 L58.7608,20.8878 Z M58.7608,6.4748 L51.2698,13.9108 L50.3338,13.0388 L58.7608,4.5098 L58.7608,6.4748 Z" id="Fill-23" fill="#FEFEFE" mask="url(#mask-2)"></path>
                    </g>
                </g>
            </g>
        </g>
    </g>
</svg>