<?xml version="1.0" encoding="UTF-8"?>
<svg width="189px" height="49px" viewBox="0 0 189 49" version="1.1" xmlns="http://www.w3.org/2000/svg" xmlns:xlink="http://www.w3.org/1999/xlink">
    <!-- Generator: Sketch 52.6 (67491) - http://www.bohemiancoding.com/sketch -->
    <title>Group 27</title>
    <desc>Created with Sketch.</desc>
    <defs>
        <polygon id="path-1" points="0.4622 0.7703 10.323 0.7703 10.323 20.2983 0.4622 20.2983"></polygon>
        <polygon id="path-3" points="0 0.0683 40.8897 0.0683 40.8897 49 0 49"></polygon>
    </defs>
    <g id="Page-1" stroke="none" stroke-width="1" fill="none" fill-rule="evenodd">
        <g id="01_Valor&amp;Kraft_Homepage_v1" transform="translate(-39.000000, -32.000000)">
            <g id="Group-27" transform="translate(39.000000, 31.000000)">
                <path d="M55.612,35.2304 L54.871,35.2304 L54.871,34.8794 C55.299,34.8794 55.34,33.5154 55.26,32.8134 L53.077,18.5074 C52.96,18.0014 52.415,16.0524 51.907,16.0524 L51.907,15.7404 L56.313,15.7404 L56.313,16.0524 C55.806,16.0524 55.806,18.3134 55.806,18.3134 L57.873,31.5274 L59.898,18.2744 C59.977,17.6114 59.86,16.0524 59.431,16.0524 L59.431,15.7404 L63.836,15.7404 L63.836,16.0524 C63.329,16.0524 62.783,18.0014 62.666,18.5074 L60.484,32.8524 C60.405,33.5524 60.444,34.8794 60.834,34.8794 L60.834,35.2304 L55.612,35.2304 Z" id="Fill-1" fill="#FEFEFE"></path>
                <path d="M75.8806,34.8798 L75.8806,35.2298 L71.6326,35.2298 L71.6326,34.8798 C72.0616,34.8798 72.2946,33.7868 72.2186,32.7748 C72.1786,32.6178 72.0616,31.7998 72.0616,31.7998 L68.2806,31.7998 L68.2026,32.4628 C68.1236,32.8138 68.0096,34.8798 68.4756,34.8798 L68.4756,35.2298 L64.4596,35.2298 L64.4596,34.8798 C64.8116,34.8798 65.1626,33.8268 65.2796,33.0858 L67.5396,18.5078 C67.5396,18.1968 67.6956,16.0908 67.2296,16.0908 L67.2296,15.7398 L73.1536,15.7398 L73.1536,16.0908 C72.6856,16.0908 72.8026,17.9228 72.8406,18.4298 L75.0626,33.0858 C75.2186,33.8268 75.5306,34.8798 75.8806,34.8798 Z M71.6326,29.0328 L70.1906,19.4438 L68.7096,29.0328 L71.6326,29.0328 Z" id="Fill-3" fill="#FEFEFE"></path>
                <path d="M77.4421,35.2304 L77.4421,34.8794 C77.8711,34.8794 78.1421,33.1254 78.1811,32.5794 L78.1811,18.3134 C78.1041,17.7284 77.8711,16.0904 77.4421,16.0904 L77.4421,15.7404 L81.6901,15.7404 L81.6901,16.0904 C81.1821,16.0904 80.9491,18.1964 80.9491,18.5074 L80.9491,32.4624 L83.3671,32.4624 C83.7171,32.4624 85.8231,32.1904 85.8231,31.7224 L86.1341,31.7224 L85.5881,35.2304 L77.4421,35.2304 Z" id="Fill-5" fill="#FEFEFE"></path>
                <path d="M92.9557,35.2304 L90.8117,35.2304 C88.8247,35.2304 87.1887,33.5924 87.1887,31.6054 L87.1887,19.3274 C87.1097,17.3774 88.4737,15.8184 90.8117,15.7404 L92.9557,15.7404 C94.9447,15.7404 96.5427,17.3374 96.5427,19.3274 L96.5427,31.6054 C96.5427,33.5924 94.9447,35.2304 92.9557,35.2304 M90.8117,32.4624 L92.9557,32.4624 C93.3857,32.4624 93.7747,32.0734 93.7747,31.6054 L93.7747,19.3274 C93.7747,18.8974 93.3857,18.5074 92.9557,18.5074 L90.8117,18.5074 C90.3467,18.5074 89.9557,18.8974 89.9557,19.3274 L89.9557,31.6054 C89.9557,32.0734 90.3467,32.4624 90.8117,32.4624" id="Fill-7" fill="#FEFEFE"></path>
                <path d="M108.6667,34.8798 L108.6667,35.2298 L104.4167,35.2298 L104.4167,34.8798 C104.8067,34.8798 104.6507,33.7478 104.4577,32.9698 L102.6257,27.7858 L101.7667,27.7858 L101.7667,32.5398 C101.7667,33.0478 102.0397,34.8798 102.4697,34.8798 L102.4697,35.2298 L98.2197,35.2298 L98.2197,34.8798 C98.6877,34.8798 98.9607,32.9698 98.9607,32.5008 L98.9607,18.5078 C98.9607,18.1568 98.7267,16.0528 98.2197,16.0528 L98.2197,15.7398 L103.9117,15.7398 C103.9117,15.7398 107.6907,15.7398 107.6907,20.0668 L107.6907,22.8338 C107.6907,24.5498 107.2247,25.8738 106.2887,26.7718 C106.0167,27.0438 105.7037,27.2378 105.4317,27.3558 L107.3017,32.8528 C107.5757,33.5538 108.1597,34.8798 108.6667,34.8798 Z M103.7537,25.0178 C104.0667,25.0178 104.9237,24.7828 104.9237,22.8338 L104.9237,20.0668 C104.9237,18.8978 104.1447,18.5848 103.7167,18.4688 L101.7667,18.4688 L101.7667,25.0178 L103.7537,25.0178 Z" id="Fill-9" fill="#FEFEFE"></path>
                <path d="M119.3532,26.2206 L124.5032,26.2206 L124.5032,28.3106 L123.6792,28.3106 L123.6792,32.5216 C123.6792,34.0236 122.4732,35.2296 120.9712,35.2296 L119.3532,35.2296 C117.8512,35.2296 116.6432,34.0236 116.6432,32.5216 L116.6432,28.9286 C116.6432,28.3106 116.8492,27.7226 117.2332,27.2506 C116.8492,26.8096 116.6432,26.2206 116.6432,25.6026 L116.5852,23.2766 C116.5852,21.8046 117.7912,20.5686 119.2922,20.5686 L120.9132,20.5686 C122.3842,20.5686 123.6232,21.8046 123.6232,23.2766 L123.6522,24.2176 C123.7092,24.4246 123.8272,24.6016 124.0632,24.6016 L124.0632,24.8666 L121.5892,24.8666 L121.5302,23.2766 C121.5302,22.9526 121.2362,22.6576 120.9132,22.6576 L119.2922,22.6576 C118.9392,22.6576 118.6452,22.9526 118.6452,23.2766 L118.7352,25.6026 C118.7352,25.9266 118.9992,26.2206 119.3532,26.2206 Z M121.5892,28.3106 L119.3532,28.3106 C118.9992,28.3106 118.7352,28.5746 118.7352,28.9286 L118.7352,32.5216 C118.7352,32.8746 118.9992,33.1686 119.3532,33.1686 L120.9712,33.1686 C121.3252,33.1686 121.5892,32.8746 121.5892,32.5216 L121.5892,28.3106 Z" id="Fill-11" fill="#FEFEFE"></path>
                <path d="M132.6569,35.2304 L132.6569,34.8794 C133.1229,34.8794 133.3579,32.9694 133.3959,32.5014 L133.3959,18.3134 C133.3189,17.7284 133.0859,16.0904 132.6569,16.0904 L132.6569,15.7404 L136.9049,15.7404 L136.9049,16.0904 C136.3969,16.0904 136.1639,18.1964 136.1639,18.5074 L136.1639,22.5224 L138.3089,18.5074 C138.3859,18.3134 139.7509,16.0904 139.0489,16.0904 L139.0489,15.7404 L143.2989,15.7404 L143.2989,16.0904 C142.7919,16.0904 141.6219,18.1574 141.4669,18.5074 L138.9329,23.1864 L142.5179,33.3204 C142.7919,34.0224 143.1799,34.8794 143.4919,34.8794 L143.4919,35.2304 L139.2439,35.2304 L139.2439,34.8794 C139.7509,34.8794 139.5949,33.2424 139.3229,32.4624 L137.1389,26.5764 L136.1639,28.4084 L136.1639,32.4624 C136.1639,32.8524 136.3969,34.8794 136.9049,34.8794 L136.9049,35.2304 L132.6569,35.2304 Z" id="Fill-13" fill="#FEFEFE"></path>
                <path d="M155.654,34.8798 L155.654,35.2298 L151.406,35.2298 L151.406,34.8798 C151.797,34.8798 151.64,33.7478 151.445,32.9698 L149.613,27.7858 L148.757,27.7858 L148.757,32.5398 C148.757,33.0478 149.029,34.8798 149.457,34.8798 L149.457,35.2298 L145.209,35.2298 L145.209,34.8798 C145.675,34.8798 145.948,32.9698 145.948,32.5008 L145.948,18.5078 C145.948,18.1568 145.716,16.0528 145.209,16.0528 L145.209,15.7398 L150.899,15.7398 C150.899,15.7398 154.68,15.7398 154.68,20.0668 L154.68,22.8338 C154.68,24.5498 154.212,25.8738 153.277,26.7718 C153.005,27.0438 152.693,27.2378 152.421,27.3558 L154.291,32.8528 C154.563,33.5538 155.147,34.8798 155.654,34.8798 Z M150.744,25.0178 C151.054,25.0178 151.914,24.7828 151.914,22.8338 L151.914,20.0668 C151.914,18.8978 151.133,18.5848 150.706,18.4688 L148.757,18.4688 L148.757,25.0178 L150.744,25.0178 Z" id="Fill-15" fill="#FEFEFE"></path>
                <path d="M167.5056,34.8798 L167.5056,35.2298 L163.2576,35.2298 L163.2576,34.8798 C163.6866,34.8798 163.9196,33.7868 163.8416,32.7748 C163.8026,32.6178 163.6866,31.7998 163.6866,31.7998 L159.9036,31.7998 L159.8256,32.4628 C159.7486,32.8138 159.6316,34.8798 160.1006,34.8798 L160.1006,35.2298 L156.0846,35.2298 L156.0846,34.8798 C156.4366,34.8798 156.7856,33.8268 156.9026,33.0858 L159.1636,18.5078 C159.1636,18.1968 159.3206,16.0908 158.8526,16.0908 L158.8526,15.7398 L164.7766,15.7398 L164.7766,16.0908 C164.3106,16.0908 164.4276,17.9228 164.4656,18.4298 L166.6876,33.0858 C166.8436,33.8268 167.1536,34.8798 167.5056,34.8798 Z M163.2576,29.0328 L161.8156,19.4438 L160.3326,29.0328 L163.2576,29.0328 Z" id="Fill-17" fill="#FEFEFE"></path>
                <path d="M177.4479,15.7401 L177.7969,19.2491 L177.4479,19.2491 C177.4479,18.7801 175.3439,18.5471 175.0299,18.5471 L172.6139,18.5471 L172.6139,22.2891 L173.6259,22.2891 C173.9389,22.2891 176.0439,22.0541 176.0439,21.5491 L176.3949,21.5491 L176.3949,25.7971 L176.0439,25.7971 C176.0439,25.2911 173.9389,25.0561 173.6259,25.0561 L172.6139,25.0561 L172.6139,32.6181 C172.6519,33.1651 172.8859,34.8801 173.3149,34.8801 L173.3149,35.2291 L169.1059,35.2291 L169.1059,34.8801 C169.5339,34.8801 169.7679,33.2031 169.8459,32.6181 L169.8459,18.5081 C169.8059,18.0791 169.5739,16.0911 169.1059,16.0911 L169.1059,15.7401 L177.4479,15.7401 Z" id="Fill-19" fill="#FEFEFE"></path>
                <g id="Group-23" transform="translate(178.000000, 14.931600)">
                    <mask id="mask-2" fill="white">
                        <use xlink:href="#path-1"></use>
                    </mask>
                    <g id="Clip-22"></g>
                    <path d="M0.8112,4.2783 L0.4622,4.2783 L0.4622,3.5373 L1.0072,0.7703 L9.7782,0.7703 L10.3232,3.5373 L10.3232,4.2783 L9.9722,4.2783 C9.9722,3.8103 7.8682,3.5373 7.5562,3.5373 L6.7772,3.5373 L6.7772,17.5313 C6.7772,17.9993 7.0482,19.9483 7.5162,19.9483 L7.5162,20.2983 L3.2682,20.2983 L3.2682,19.9483 C3.7372,19.9483 3.9682,18.1543 4.0082,17.6083 L4.0082,3.5373 L3.2292,3.5373 C2.9152,3.5373 0.8112,3.8103 0.8112,4.2783" id="Fill-21" fill="#FEFEFE" mask="url(#mask-2)"></path>
                </g>
                <g id="Group-26" transform="translate(0.000000, 0.931600)">
                    <mask id="mask-4" fill="white">
                        <use xlink:href="#path-3"></use>
                    </mask>
                    <g id="Clip-25"></g>
                    <path d="M39.3317,0.0683 L1.5577,0.0683 L-0.0003,0.0683 L-0.0003,1.6263 L-0.0003,37.4603 L-0.0003,38.4083 L0.8427,38.8423 L19.7887,48.6303 L20.5057,49.0003 L21.2217,48.6283 L40.0507,38.8413 L40.8897,38.4053 L40.8897,37.4603 L40.8897,1.6263 L40.8897,0.0683 L39.3317,0.0683 Z M28.2287,1.6263 L37.9957,1.6263 L32.5527,7.1343 L28.2287,3.1073 L28.2287,1.6263 Z M35.0967,23.0963 C30.3027,26.5283 23.2957,34.1103 20.5177,41.9223 C18.0017,34.7693 11.3997,27.2193 5.6747,23.0983 L5.6397,18.4253 L7.2337,16.9273 C11.6327,21.0013 17.7557,26.8953 19.7597,33.5243 L20.4817,35.9173 L21.2447,33.5373 C23.2037,27.4293 28.6547,21.7983 33.5407,16.8143 L35.1317,18.3083 L35.0967,23.0963 Z M35.0817,25.0463 L35.0197,33.5033 C33.0027,34.1233 26.3247,36.4763 22.4397,41.3313 C24.9937,35.1903 30.3367,28.7393 35.0817,25.0463 Z M18.6907,41.5393 C14.7747,36.5753 7.8297,34.2223 5.7507,33.6123 L5.6877,25.0473 C10.7787,28.9913 16.2517,35.4913 18.6907,41.5393 Z M20.5207,31.0633 C17.9387,24.9333 12.4487,19.6373 8.3717,15.8593 L12.7127,11.7813 C15.8017,14.7283 18.0707,17.1123 19.7597,22.6933 L20.4817,25.0863 L21.2447,22.7063 C22.9037,17.5353 25.0387,15.3693 28.2717,12.0903 L28.3877,11.9743 L32.4047,15.7483 C27.9277,20.3163 22.9887,25.4183 20.5207,31.0633 Z M27.1637,10.9973 C24.3457,13.8563 22.2017,16.0313 20.5277,20.1173 C18.8307,15.6553 16.6647,13.4013 13.8497,10.7133 L20.4447,4.5143 L27.2517,10.9083 L27.1637,10.9973 Z M12.6827,1.6263 L12.6827,3.1073 L8.3597,7.1343 L2.9167,1.6263 L12.6827,1.6263 Z M1.5577,2.4633 L7.2217,8.1953 L6.5957,8.7783 L1.5577,3.7783 L1.5577,2.4633 Z M1.5577,5.9723 L5.4547,9.8403 L1.5577,13.4713 L1.5577,5.9723 Z M1.5577,37.4603 L1.5577,15.5983 L14.2407,3.7863 L14.2407,1.6263 L19.7247,1.6263 L19.7247,3.0543 L4.0787,17.7563 L4.2027,34.8123 L4.7847,34.9603 C4.9157,34.9933 17.5937,38.3133 19.6057,46.7843 L1.5577,37.4603 Z M39.3317,37.4603 L21.4007,46.7803 C23.4077,38.3003 35.8667,34.8753 35.9957,34.8403 L36.5687,34.6873 L36.6927,17.6393 L21.2817,3.1663 L21.2817,1.6263 L26.6717,1.6263 L26.6717,3.7863 L39.3317,15.5773 L39.3317,37.4603 Z M39.3317,13.4493 L35.4577,9.8403 L39.3317,5.9963 L39.3317,13.4493 Z M39.3317,3.8013 L34.3167,8.7783 L33.6907,8.1953 L39.3317,2.4863 L39.3317,3.8013 Z" id="Fill-24" fill="#D0B17C" mask="url(#mask-4)"></path>
                </g>
            </g>
        </g>
    </g>
</svg>