<?xml version="1.0" encoding="utf-8"?>
<!-- Generator: Adobe Illustrator 24.3.0, SVG Export Plug-In . SVG Version: 6.00 Build 0)  -->
<svg version="1.1" id="Layer_1" xmlns="http://www.w3.org/2000/svg" xmlns:xlink="http://www.w3.org/1999/xlink" x="0px" y="0px"
	 viewBox="0 0 100 100" enable-background="new 0 0 100 100" xml:space="preserve">
<g>
	<path fill="#22201F" d="M91.5,84.1c-3.1,0-6.2,2.7-6.2,7.9c0,3.5-2,5.1-4,5.1c-2,0-4-1.6-4-5.1c0-5.2-3.4-7.9-6.8-7.9
		c-3.4,0-6.8,2.7-6.8,7.9c0,3.5-2,5.1-4,5.1c0,0,0,0,0,0c-1,0-2-0.4-2.7-1.2c-0.9-0.9-1.3-2.3-1.3-3.9c0-5.2-3.4-7.9-6.8-7.9
		c0,0,0,0,0,0c-3.4,0-6.8,2.7-6.8,7.9c0,3.5-2,5.1-4,5.1c-2,0-4-1.6-4-5.1c0-5.2-3.4-7.9-6.8-7.9c-3.4,0-6.8,2.7-6.8,7.9
		c0,3.6-2,5.2-4,5.2c-2,0-4-1.6-4-5.2c0-5.2-3.2-7.9-6.3-7.9c-3.1,0-6.3,2.7-6.3,7.9c0,0.8,0.6,1.4,1.4,1.4c0.8,0,1.4-0.6,1.4-1.4
		c0-3.5,1.8-5,3.5-5c1.7,0,3.5,1.6,3.5,5c0,5.3,3.4,8,6.8,8c3.4,0,6.8-2.8,6.8-8c0-3.5,2-5,4-5c2,0,4,1.6,4,5c0,5.2,3.4,8,6.8,8
		c3.4,0,6.8-2.7,6.8-8c0-3.5,2-5,4-5c0,0,0,0,0,0c2,0,4,1.6,4,5.1c0,5.2,3.4,7.9,6.8,7.9c0,0,0,0,0,0c1.8,0,3.5-0.7,4.7-2.1
		c1.3-1.5,2.1-3.5,2.1-5.9c0-3.5,2-5,4-5c2,0,4,1.6,4,5c0,5.2,3.4,8,6.8,8s6.8-2.7,6.8-8c0-3.5,1.8-5,3.4-5s3.4,1.6,3.4,5
		c0,0.8,0.6,1.4,1.4,1.4s1.4-0.6,1.4-1.4C97.8,86.8,94.6,84.1,91.5,84.1z"/>
	<path fill="#22201F" d="M87.7,0C81,0,75.5,5.5,75.5,12.2v13.7H48.2V12.2c0-5.2,4.2-9.4,9.4-9.4c5.2,0,9.4,4.2,9.4,9.4v4.3
		c0,0.8,0.6,1.4,1.4,1.4c0.8,0,1.4-0.6,1.4-1.4v-4.3C69.7,5.5,64.3,0,57.5,0c-6.7,0-12.2,5.5-12.2,12.2v51.5
		c-1.8,1.3-3.1,3.5-3.1,6.7c0,3.5-2,5.1-4,5.1c-2,0-4-1.6-4-5.1c0-5.2-3.4-7.9-6.8-7.9c-3.4,0-6.8,2.7-6.8,7.9c0,3.6-2,5.2-4,5.2
		c-2,0-4-1.6-4-5.2c0-5.2-3.2-7.9-6.3-7.9c-3.1,0-6.3,2.7-6.3,7.9c0,0.8,0.6,1.4,1.4,1.4c0.8,0,1.4-0.6,1.4-1.4c0-3.5,1.8-5,3.5-5
		c1.7,0,3.5,1.6,3.5,5c0,5.3,3.4,8,6.8,8c3.4,0,6.8-2.8,6.8-8c0-3.5,2-5,4-5c2,0,4,1.6,4,5c0,5.2,3.4,8,6.8,8c3.4,0,6.8-2.7,6.8-8
		c0-2.6,1.1-4.1,2.5-4.7c0,0,0,0,0,0c0.5-0.2,1-0.3,1.5-0.3c0,0,0,0,0,0c2,0,4,1.6,4,5.1c0,5.2,3.4,7.9,6.8,7.9c0,0,0,0,0,0
		c1.8,0,3.5-0.7,4.7-2.1c1.3-1.5,2.1-3.5,2.1-5.9c0-3.5,2-5,4-5c2,0,4,1.6,4,5c0,1.8,0.4,3.3,1.1,4.5c0,0.1,0.1,0.2,0.1,0.3
		c1.3,2.1,3.4,3.2,5.6,3.2c3.4,0,6.8-2.7,6.8-8c0-3.5,1.8-5,3.4-5s3.4,1.6,3.4,5c0,0.8,0.6,1.4,1.4,1.4s1.4-0.6,1.4-1.4
		c0-5.2-3.1-7.9-6.2-7.9s-6.2,2.7-6.2,7.9c0,3.5-2,5.1-4,5.1c-1.1,0-2.2-0.5-3-1.6V12.2c0-5.2,4.2-9.4,9.4-9.4s9.4,4.2,9.4,9.4v4.3
		c0,0.8,0.6,1.4,1.4,1.4c0.8,0,1.4-0.6,1.4-1.4v-4.3C99.9,5.5,94.5,0,87.7,0z M48.2,41.7h27.3v10.1H48.2V41.7z M75.5,28.7v10.1H48.2
		V28.7H75.5z M70.6,62.5c-3.4,0-6.8,2.7-6.8,7.9c0,3.5-2,5.1-4,5.1c0,0,0,0,0,0c-1,0-2-0.4-2.7-1.2c-0.9-0.9-1.3-2.3-1.3-3.9
		c0-5.2-3.4-7.9-6.8-7.9c0,0,0,0,0,0c-0.3,0-0.5,0-0.8,0.1v-8h27.3v10.3C74.2,63.3,72.4,62.5,70.6,62.5z"/>
</g>
</svg>
