<?xml version="1.0" encoding="utf-8"?>
<!-- Generator: Adobe Illustrator 24.3.0, SVG Export Plug-In . SVG Version: 6.00 Build 0)  -->
<svg version="1.1" id="Layer_1" xmlns="http://www.w3.org/2000/svg" xmlns:xlink="http://www.w3.org/1999/xlink" x="0px" y="0px"
	 viewBox="0 0 100 100" enable-background="new 0 0 100 100" xml:space="preserve">
<path fill="#22201F" d="M83.8,67.6h-4.9V44.9c2.4-0.6,4.2-2.8,4.2-5.4V14.1C83.1,6.3,76.8,0,69,0H31c-7.8,0-14.1,6.3-14.1,14.1v25.3
	c0,2.6,1.8,4.8,4.2,5.4v22.7h-4.9c-4.3,0-7.7,3.5-7.7,7.7v19c0,3.1,2.5,5.6,5.6,5.6h8.4H31h38h8.4h8.4c3.1,0,5.6-2.5,5.6-5.6v-19
	C91.5,71.1,88.1,67.6,83.8,67.6z M83.8,70.4c2.7,0,4.9,2.2,4.9,4.9v4.9h-9.9v-9.9H83.8z M19.7,39.4V14.1c0-6.2,5.1-11.3,11.3-11.3
	h38c6.2,0,11.3,5.1,11.3,11.3v25.3c0,1.6-1.3,2.8-2.8,2.8h-7.1V31c0-0.8-0.6-1.4-1.4-1.4h-8.4c-0.8,0-1.4,0.6-1.4,1.4v11.3H40.8V31
	c0-0.8-0.6-1.4-1.4-1.4H31c-0.8,0-1.4,0.6-1.4,1.4v11.3h-7.1C21,42.3,19.7,41,19.7,39.4z M62,32.4h5.7v18.3H62V32.4z M32.4,32.4H38
	v18.3h-5.7V32.4z M16.2,70.4h4.9v9.9h-9.9v-4.9C11.3,72.6,13.5,70.4,16.2,70.4z M11.3,94.4V83.1h9.9v14.1h-7.1
	C12.5,97.2,11.3,95.9,11.3,94.4z M23.9,69v-24h5.7v7.1c0,0.8,0.6,1.4,1.4,1.4h8.4c0.8,0,1.4-0.6,1.4-1.4v-7.1h18.3v7.1
	c0,0.8,0.6,1.4,1.4,1.4H69c0.8,0,1.4-0.6,1.4-1.4v-7.1h5.7v24v28.2h-5.7V75.3c0-4.3-3.5-7.7-7.7-7.7H37.3c-4.3,0-7.7,3.5-7.7,7.7
	v21.8h-5.7V69z M67.6,80.3H32.4v-4.9c0-2.7,2.2-4.9,4.9-4.9h25.3c2.7,0,4.9,2.2,4.9,4.9V80.3z M32.4,97.2V83.1h35.2v14.1H32.4z
	 M85.9,97.2h-7.1V83.1h9.9v11.3C88.7,95.9,87.5,97.2,85.9,97.2z"/>
</svg>
