<?xml version="1.0" encoding="utf-8"?>
<!-- Generator: Adobe Illustrator 24.3.0, SVG Export Plug-In . SVG Version: 6.00 Build 0)  -->
<svg version="1.1" id="Layer_1" xmlns="http://www.w3.org/2000/svg" xmlns:xlink="http://www.w3.org/1999/xlink" x="0px" y="0px"
	 viewBox="0 0 100 100" enable-background="new 0 0 100 100" xml:space="preserve">
<g>
	<path fill="#22201F" d="M96.4,84.5h-4.9V23.9h2.8c0.8,0,1.4-0.6,1.4-1.4V1.4c0-0.8-0.6-1.4-1.4-1.4h-8.4c-0.8,0-1.4,0.6-1.4,1.4
		v21.1c0,0.8,0.6,1.4,1.4,1.4h2.8v60.5h-4.9c-0.8,0-1.4,0.6-1.4,1.4s0.6,1.4,1.4,1.4h4.9v11.3c0,0.8,0.6,1.4,1.4,1.4
		s1.4-0.6,1.4-1.4V87.3h4.9c0.8,0,1.4-0.6,1.4-1.4S97.2,84.5,96.4,84.5z M87.3,2.8h5.7v18.3h-5.7V2.8z"/>
	<path fill="#22201F" d="M16.2,84.5h-4.9V23.9h2.8c0.8,0,1.4-0.6,1.4-1.4V1.4c0-0.8-0.6-1.4-1.4-1.4H5.7c-0.8,0-1.4,0.6-1.4,1.4
		v21.1c0,0.8,0.6,1.4,1.4,1.4h2.8v60.5H3.6c-0.8,0-1.4,0.6-1.4,1.4s0.6,1.4,1.4,1.4h4.9v11.3c0,0.8,0.6,1.4,1.4,1.4
		c0.8,0,1.4-0.6,1.4-1.4V87.3h4.9c0.8,0,1.4-0.6,1.4-1.4S17,84.5,16.2,84.5z M7.1,2.8h5.7v18.3H7.1V2.8z"/>
	<path fill="#22201F" d="M45.8,45c0.8,0,1.4-0.6,1.4-1.4c0-0.8-0.6-1.4-1.4-1.4h-1l1.7-28.1c0.2-3.7-1.1-7.3-3.7-9.9
		c-2.5-2.7-6.1-4.2-9.7-4.2c-3.7,0-7.2,1.5-9.7,4.2c-2.5,2.7-3.8,6.3-3.6,9.9c0,0,0,0,0,0l1.7,28.1h-1c-0.8,0-1.4,0.6-1.4,1.4
		c0,0.8,0.6,1.4,1.4,1.4h1.2l1.4,22.5h-2.6c-0.8,0-1.4,0.6-1.4,1.4s0.6,1.4,1.4,1.4h2.8l0,0.7l-4.2,27.3c-0.1,0.4,0.1,0.8,0.3,1.1
		c0.3,0.3,0.6,0.5,1.1,0.5h25.3c0.4,0,0.8-0.2,1.1-0.5c0.3-0.3,0.4-0.7,0.3-1.1L43,71.4l0.1-1h2.8c0.8,0,1.4-0.6,1.4-1.4
		s-0.6-1.4-1.4-1.4h-2.6L44.6,45H45.8z M22.5,14c-0.2-2.9,0.9-5.8,2.9-7.9c2-2.1,4.8-3.3,7.7-3.3c2.9,0,5.7,1.2,7.7,3.3
		c2,2.1,3,5,2.9,7.9L42,42.3H24.3L22.5,14z M40.2,71.7l4,25.5H22.1l4-25.8c0-0.1,0-0.2,0-0.3l0-0.6h14.2l-0.1,1
		C40.2,71.5,40.2,71.6,40.2,71.7z M40.4,67.6H25.8L24.4,45h17.3L40.4,67.6z"/>
	<path fill="#22201F" d="M79.6,45c0.8,0,1.4-0.6,1.4-1.4c0-0.8-0.6-1.4-1.4-1.4h-1l1.7-28.1c0.2-3.7-1.1-7.3-3.7-9.9
		c-2.5-2.7-6.1-4.2-9.7-4.2c-3.7,0-7.2,1.5-9.7,4.2c-2.5,2.7-3.8,6.3-3.6,9.9c0,0,0,0,0,0l1.7,28.1h-1c-0.8,0-1.4,0.6-1.4,1.4
		c0,0.8,0.6,1.4,1.4,1.4h1.2l1.4,22.5h-2.6c-0.8,0-1.4,0.6-1.4,1.4s0.6,1.4,1.4,1.4H57l0,0.7l-4.2,27.3c-0.1,0.4,0.1,0.8,0.3,1.1
		c0.3,0.3,0.7,0.5,1.1,0.5h25.3c0.4,0,0.8-0.2,1.1-0.5c0.3-0.3,0.4-0.7,0.3-1.1l-4.2-26.9l0.1-1h2.8c0.8,0,1.4-0.6,1.4-1.4
		s-0.6-1.4-1.4-1.4H77L78.4,45H79.6z M56.3,14c-0.2-2.9,0.9-5.8,2.9-7.9c2-2.1,4.8-3.3,7.7-3.3c2.9,0,5.7,1.2,7.7,3.3
		c2,2.1,3,5,2.9,7.9l-1.7,28.3H58L56.3,14z M74,71.7l4,25.5H55.8l4-25.8c0-0.1,0-0.2,0-0.3l0-0.6H74l-0.1,1
		C73.9,71.5,73.9,71.6,74,71.7z M74.2,67.6H59.6L58.2,45h17.3L74.2,67.6z"/>
</g>
</svg>
