<?xml version="1.0" encoding="utf-8"?>
<!-- Generator: Adobe Illustrator 24.3.0, SVG Export Plug-In . SVG Version: 6.00 Build 0)  -->
<svg version="1.1" id="Layer_1" xmlns="http://www.w3.org/2000/svg" xmlns:xlink="http://www.w3.org/1999/xlink" x="0px" y="0px"
	 viewBox="0 0 100 100" enable-background="new 0 0 100 100" xml:space="preserve">
<g>
	<path fill="#22201F" d="M99.6,74.6c-4.7-4.7-8.8-6.1-14.1-4.6l-16.4,5.4c-0.1-2.8-2.3-5.5-6.4-5.5H50.6c-3-2.8-10-8.5-19.6-8.5
		H19.7v-2.8c0-0.8-0.6-1.4-1.4-1.4H1.4c-0.8,0-1.4,0.6-1.4,1.4v34c0,0.8,0.6,1.4,1.4,1.4h16.9c0.8,0,1.4-0.6,1.4-1.4v-4.6
		c3.9,1.3,7.4,2.5,10.5,3.6c11,3.8,17.1,5.9,22.6,5.9c6.8,0,12.7-3.1,25.6-10c5.4-2.9,12.2-6.5,20.8-10.8c0.4-0.2,0.7-0.6,0.8-1
		C100.1,75.4,99.9,74.9,99.6,74.6z M16.9,91.3H2.8V60.1h14.1V91.3z M77.1,85.2c-22.6,12-22.6,12-46,3.9c-3.3-1.2-7.1-2.5-11.4-3.9
		V64.3H31c9,0,15.6,5.6,18,8c0.3,0.3,0.6,0.4,1,0.4h12.7c2.5,0,3.6,1.4,3.6,2.8c0,0.7-0.3,1.4-0.8,1.9c-0.7,0.6-1.6,0.9-2.8,0.9
		H39.4c-0.8,0-1.4,0.6-1.4,1.4s0.6,1.4,1.4,1.4h23.2c2.6,0,4.4-1,5.4-2.5l18.2-6c3.7-1.1,6.5-0.4,9.9,2.5
		C88.4,79.2,82.2,82.5,77.1,85.2z"/>
	<path fill="#22201F" d="M73.2,30.5c7.8,0,14.1-6.3,14.1-14.1c0-7.8-6.3-14.1-14.1-14.1c-7.8,0-14.1,6.3-14.1,14.1
		C59.2,24.2,65.5,30.5,73.2,30.5z M73.2,5.2c6.2,0,11.3,5.1,11.3,11.3c0,6.2-5.1,11.3-11.3,11.3C67,27.7,62,22.7,62,16.5
		C62,10.2,67,5.2,73.2,5.2z"/>
	<path fill="#22201F" d="M52.1,60.1c7.8,0,14.1-6.3,14.1-14.1c0-7.8-6.3-14.1-14.1-14.1C44.3,32,38,38.3,38,46
		C38,53.8,44.3,60.1,52.1,60.1z M52.1,34.8c6.2,0,11.3,5.1,11.3,11.3c0,6.2-5.1,11.3-11.3,11.3c-6.2,0-11.3-5.1-11.3-11.3
		C40.8,39.8,45.9,34.8,52.1,34.8z"/>
	<path fill="#22201F" d="M52.1,51.7c0.8,0,1.4-0.6,1.4-1.4v-8.5c0-0.8-0.6-1.4-1.4-1.4s-1.4,0.6-1.4,1.4v8.5
		C50.7,51,51.3,51.7,52.1,51.7z"/>
	<path fill="#22201F" d="M73.2,22.1c0.8,0,1.4-0.6,1.4-1.4v-8.5c0-0.8-0.6-1.4-1.4-1.4s-1.4,0.6-1.4,1.4v8.5
		C71.8,21.5,72.5,22.1,73.2,22.1z"/>
</g>
</svg>
