<?xml version="1.0" encoding="utf-8"?>
<!-- Generator: Adobe Illustrator 24.3.0, SVG Export Plug-In . SVG Version: 6.00 Build 0)  -->
<svg version="1.1" id="Layer_1" xmlns="http://www.w3.org/2000/svg" xmlns:xlink="http://www.w3.org/1999/xlink" x="0px" y="0px"
	 viewBox="0 0 100 100" enable-background="new 0 0 100 100" xml:space="preserve">
<g>
	<path fill="#22201F" d="M57.4,58.1c-0.8,0-1.4,0.6-1.4,1.4v19.7H12.4V35.6h19.7c0.8,0,1.4-0.6,1.4-1.4s-0.6-1.4-1.4-1.4H12.4v-7
		c0-3.9,3.1-7,7-7h12.6c0.8,0,1.4-0.6,1.4-1.4S32.9,16,32.1,16H19.5c-5.4,0-9.8,4.4-9.8,9.8V89c0,5.4,4.4,9.8,9.8,9.8h29.5
		c5.4,0,9.8-4.4,9.8-9.8V59.5C58.8,58.7,58.1,58.1,57.4,58.1z M48.9,96H19.5c-3.9,0-7-3.2-7-7v-7H56v7C56,92.8,52.8,96,48.9,96z"/>
	<path fill="#22201F" d="M32.1,24.4h-4.2c-0.8,0-1.4,0.6-1.4,1.4s0.6,1.4,1.4,1.4h4.2c0.8,0,1.4-0.6,1.4-1.4S32.9,24.4,32.1,24.4z"
		/>
	<path fill="#22201F" d="M34.2,85.4c-1.9,0-3.5,1.6-3.5,3.5c0,1.9,1.6,3.5,3.5,3.5s3.5-1.6,3.5-3.5C37.7,87,36.1,85.4,34.2,85.4z
		 M34.2,89.7c-0.4,0-0.7-0.3-0.7-0.7c0-0.4,0.3-0.7,0.7-0.7c0.4,0,0.7,0.3,0.7,0.7C34.9,89.3,34.6,89.7,34.2,89.7z"/>
	<path fill="#22201F" d="M89,41.2c-2.3,0-4.9-1.4-4.9-3.5V25.8C84,17.9,80.1,11,74,8c-0.5-3.9-3.8-6.8-8.2-6.8
		c-4.3,0-7.7,2.9-8.2,6.8c-6.2,3-10.1,9.9-10.1,17.8v11.9c0,2.1-2.6,3.5-4.9,3.5c-0.8,0-1.4,0.6-1.4,1.4s0.6,1.4,1.4,1.4h13.4
		c0.7,4.8,4.8,8.4,9.7,8.4c4.9,0,9-3.7,9.7-8.4H89c0.8,0,1.4-0.6,1.4-1.4S89.7,41.2,89,41.2z M65.8,49.7c-3.4,0-6.2-2.4-6.9-5.6
		h13.8C72,47.2,69.2,49.7,65.8,49.7z M49.1,41.2c0.8-1,1.3-2.2,1.3-3.5V25.8c0-7.1,3.6-13.2,9.2-15.6c0.5-0.2,0.9-0.7,0.9-1.3
		c0-2.8,2.3-4.9,5.4-4.9s5.4,2.1,5.4,4.9c0,0.6,0.3,1.1,0.9,1.3c5.6,2.3,9.2,8.4,9.2,15.6v11.9c0,1.4,0.5,2.6,1.3,3.5H49.1z"/>
</g>
</svg>
