<?xml version="1.0" encoding="utf-8"?>
<!-- Generator: Adobe Illustrator 24.3.0, SVG Export Plug-In . SVG Version: 6.00 Build 0)  -->
<svg version="1.1" id="Layer_1" xmlns="http://www.w3.org/2000/svg" xmlns:xlink="http://www.w3.org/1999/xlink" x="0px" y="0px"
	 viewBox="0 0 100 100" enable-background="new 0 0 100 100" xml:space="preserve">
<g>
	<path fill="#22201F" d="M97.8,53.2c0.4,0.3,1,0.4,1.5,0.1c0.5-0.2,0.8-0.7,0.8-1.3V37.3c0-0.4-0.2-0.9-0.6-1.1L50.8,0.3
		c-0.5-0.4-1.2-0.4-1.7,0L0.6,36.2C0.2,36.5,0,36.9,0,37.3v14.8c0,0.5,0.3,1,0.8,1.3c0.2,0.1,0.4,0.1,0.6,0.1c0.3,0,0.6-0.1,0.8-0.3
		l6.2-4.6v48.5h-7c-0.8,0-1.4,0.6-1.4,1.4s0.6,1.4,1.4,1.4h8.5h80.3h8.5c0.8,0,1.4-0.6,1.4-1.4s-0.6-1.4-1.4-1.4h-7V48.6L97.8,53.2z
		 M2.8,38L50,3.1L97.2,38v11.3L51,15.1c-0.5-0.4-1.2-0.4-1.7,0L9.2,44.6c-0.1,0.1-0.2,0.1-0.3,0.2l-6.1,4.5V38z M88.7,97.2H11.3
		v-5.6H52c0.8,0,1.4-0.6,1.4-1.4s-0.6-1.4-1.4-1.4H11.3v-5.6H52c0.8,0,1.4-0.6,1.4-1.4c0-0.8-0.6-1.4-1.4-1.4H11.3v-5.6h15.5
		c0.8,0,1.4-0.6,1.4-1.4s-0.6-1.4-1.4-1.4H11.3v-5.6h15.5c0.8,0,1.4-0.6,1.4-1.4s-0.6-1.4-1.4-1.4H11.3v-5.6h15.5
		c0.8,0,1.4-0.6,1.4-1.4c0-0.8-0.6-1.4-1.4-1.4H11.3v-8.3l38.9-28.7l38.6,28.6V97.2z"/>
	<path fill="#22201F" d="M62.3,67.6c-0.1,1.4-1.1,2.9-3,4.6c-0.6,0.5-0.7,1.4-0.2,2c0.3,0.3,0.7,0.5,1.1,0.5c0.3,0,0.6-0.1,0.9-0.3
		c2.5-2.2,3.9-4.3,4-6.5c0.2-3.1-1.9-5.6-4-7.9c-1.8-2-3.5-4-3.3-6c0.1-1.4,1.2-3,3.2-4.8c0.6-0.5,0.7-1.4,0.2-2
		c-0.5-0.6-1.4-0.7-2-0.2c-2.6,2.3-4,4.4-4.1,6.7c-0.2,3.2,1.9,5.7,4,8C60.8,63.7,62.4,65.6,62.3,67.6z"/>
	<path fill="#22201F" d="M75,67.6c-0.1,1.4-1.1,2.9-3,4.6c-0.6,0.5-0.7,1.4-0.2,2c0.3,0.3,0.7,0.5,1.1,0.5c0.3,0,0.6-0.1,0.9-0.3
		c2.5-2.2,3.9-4.3,4-6.5c0.2-3.1-1.9-5.6-4-7.9c-1.8-2-3.5-4-3.3-6c0.1-1.4,1.2-3,3.2-4.8c0.6-0.5,0.7-1.4,0.2-2
		c-0.5-0.6-1.4-0.7-2-0.2c-2.6,2.3-4,4.4-4.1,6.7c-0.2,3.2,1.9,5.7,4,8C73.4,63.7,75.1,65.6,75,67.6z"/>
</g>
</svg>
