<?xml version="1.0" encoding="utf-8"?>
<!-- Generator: Adobe Illustrator 24.3.0, SVG Export Plug-In . SVG Version: 6.00 Build 0)  -->
<svg version="1.1" id="Layer_1" xmlns="http://www.w3.org/2000/svg" xmlns:xlink="http://www.w3.org/1999/xlink" x="0px" y="0px"
	 viewBox="0 0 100 100" enable-background="new 0 0 100 100" xml:space="preserve">
<path fill="#22201F" d="M83,76.8L65.6,53.5h10c0.5,0,1-0.3,1.2-0.7c0.2-0.5,0.2-1-0.1-1.4L61.1,28H67c0.5,0,1-0.3,1.2-0.7
	c0.2-0.5,0.2-1-0.1-1.4l-17-25.5c-0.5-0.8-1.8-0.8-2.3,0l-17,25.5c-0.3,0.4-0.3,1-0.1,1.4C32,27.7,32.5,28,33,28h5.9L23.3,51.3
	c-0.3,0.4-0.3,1-0.1,1.4c0.2,0.5,0.7,0.7,1.2,0.7h10L17,76.8c-0.3,0.4-0.4,1-0.1,1.5c0.2,0.5,0.7,0.8,1.3,0.8h30.5v19.9
	c0,0.8,0.6,1.4,1.4,1.4s1.4-0.6,1.4-1.4V79h30.5c0.5,0,1-0.3,1.3-0.8C83.4,77.8,83.3,77.2,83,76.8z M20.9,76.2L38.4,53
	c0.3-0.4,0.4-1,0.1-1.5c-0.2-0.5-0.7-0.8-1.3-0.8H27.1l15.6-23.3c0.3-0.4,0.3-1,0.1-1.4c-0.2-0.5-0.7-0.7-1.2-0.7h-5.9L50,3.6
	l14.4,21.6h-5.9c-0.5,0-1,0.3-1.2,0.7c-0.2,0.5-0.2,1,0.1,1.4l15.6,23.3H62.8c-0.5,0-1,0.3-1.3,0.8c-0.2,0.5-0.2,1,0.1,1.5
	l17.5,23.3H20.9z"/>
</svg>
