<?xml version="1.0" encoding="utf-8"?>
<!-- Generator: Adobe Illustrator 24.3.0, SVG Export Plug-In . SVG Version: 6.00 Build 0)  -->
<svg version="1.1" id="Layer_1" xmlns="http://www.w3.org/2000/svg" xmlns:xlink="http://www.w3.org/1999/xlink" x="0px" y="0px"
	 viewBox="0 0 100 100" enable-background="new 0 0 100 100" xml:space="preserve">
<path fill="#22201F" d="M95.5,96l-4.2-12.7c-0.2-0.6-0.7-1-1.3-1H78.6V24.6c0-12.4-10.1-22.5-22.5-22.5c-12.4,0-22.5,10.1-22.5,22.5
	v2.8h-7c-0.8,0-1.4,0.6-1.4,1.4v7.3c-5.7,0.8-10.7,4-14.4,9.2c-1.7,2.5-3.1,5.3-4.1,8.3c0,0,0,0,0,0c-3.5,10.7-2.8,24.6,2.5,39
	c0.2,0.6,0.7,0.9,1.3,0.9h22.8c1.8,2.6,4.7,4.2,8.1,4.2c5.4,0,9.9-4.4,9.9-9.9c0-4.2-2.6-7.8-6.3-9.2V37.3v-8.5
	c0-0.8-0.6-1.4-1.4-1.4h-7v-2.8c0-10.9,8.8-19.7,19.7-19.7s19.7,8.8,19.7,19.7v57.8H64.6c-0.6,0-1.1,0.4-1.3,1L59,96
	c-0.1,0.4-0.1,0.9,0.2,1.3c0.3,0.4,0.7,0.6,1.1,0.6h33.8c0.5,0,0.9-0.2,1.1-0.6C95.5,96.9,95.6,96.5,95.5,96z M13,47
	c3.7-5.3,9-8.2,14.9-8.2H42v14.1H9.9C10.8,50.7,11.8,48.7,13,47z M48.4,88c0,3.9-3.2,7-7,7c-3.9,0-7-3.2-7-7c0-3.9,3.2-7,7-7
	C45.2,81,48.4,84.1,48.4,88z M41.3,78.2c-5.4,0-9.9,4.4-9.9,9.9c0,1,0.1,1.9,0.4,2.8H11.4C6.9,77.8,6.1,65.3,8.9,55.6H42v22.6
	C41.8,78.2,41.5,78.2,41.3,78.2z M42,35.9H27.9h0v-5.6H42V35.9z M62.3,95.1l3.3-9.9h23.3l3.3,9.9H62.3z"/>
</svg>
